<?xml version="1.0" encoding="utf-8" standalone="no"?>
<!DOCTYPE svg PUBLIC "-//W3C//DTD SVG 1.1//EN"
  "http://www.w3.org/Graphics/SVG/1.1/DTD/svg11.dtd">
<svg xmlns:xlink="http://www.w3.org/1999/xlink" width="392.14375pt" height="294.23625pt" viewBox="0 0 392.14375 294.23625" xmlns="http://www.w3.org/2000/svg" version="1.1">
 <metadata>
  <rdf:RDF xmlns:dc="http://purl.org/dc/elements/1.1/" xmlns:cc="http://creativecommons.org/ns#" xmlns:rdf="http://www.w3.org/1999/02/22-rdf-syntax-ns#">
   <cc:Work>
    <dc:type rdf:resource="http://purl.org/dc/dcmitype/StillImage"/>
    <dc:date>2024-07-20T13:12:01.383733</dc:date>
    <dc:format>image/svg+xml</dc:format>
    <dc:creator>
     <cc:Agent>
      <dc:title>Matplotlib v3.5.1, https://matplotlib.org/</dc:title>
     </cc:Agent>
    </dc:creator>
   </cc:Work>
  </rdf:RDF>
 </metadata>
 <defs>
  <style type="text/css">*{stroke-linejoin: round; stroke-linecap: butt}</style>
 </defs>
 <g id="figure_1">
  <g id="patch_1">
   <path d="M 0 294.23625 
L 392.14375 294.23625 
L 392.14375 0 
L 0 0 
z
" style="fill: #ffffff"/>
  </g>
  <g id="axes_1">
   <g id="patch_2">
    <path d="M 50.14375 256.68 
L 384.94375 256.68 
L 384.94375 7.2 
L 50.14375 7.2 
z
" style="fill: #ffffff"/>
   </g>
   <g id="matplotlib.axis_1">
    <g id="xtick_1">
     <g id="line2d_1">
      <defs>
       <path id="m69f9f9c167" d="M 0 0 
L 0 3.5 
" style="stroke: #000000; stroke-width: 0.8"/>
      </defs>
      <g>
       <use xlink:href="#m69f9f9c167" x="65.361932" y="256.68" style="stroke: #000000; stroke-width: 0.8"/>
      </g>
     </g>
     <g id="text_1">
      <!-- 0 -->
      <g transform="translate(62.180682 271.278437)scale(0.1 -0.1)">
       <defs>
        <path id="DejaVuSans-30" d="M 2034 4250 
Q 1547 4250 1301 3770 
Q 1056 3291 1056 2328 
Q 1056 1369 1301 889 
Q 1547 409 2034 409 
Q 2525 409 2770 889 
Q 3016 1369 3016 2328 
Q 3016 3291 2770 3770 
Q 2525 4250 2034 4250 
z
M 2034 4750 
Q 2819 4750 3233 4129 
Q 3647 3509 3647 2328 
Q 3647 1150 3233 529 
Q 2819 -91 2034 -91 
Q 1250 -91 836 529 
Q 422 1150 422 2328 
Q 422 3509 836 4129 
Q 1250 4750 2034 4750 
z
" transform="scale(0.015625)"/>
       </defs>
       <use xlink:href="#DejaVuSans-30"/>
      </g>
     </g>
    </g>
    <g id="xtick_2">
     <g id="line2d_2">
      <g>
       <use xlink:href="#m69f9f9c167" x="126.356649" y="256.68" style="stroke: #000000; stroke-width: 0.8"/>
      </g>
     </g>
     <g id="text_2">
      <!-- 100 -->
      <g transform="translate(116.812899 271.278437)scale(0.1 -0.1)">
       <defs>
        <path id="DejaVuSans-31" d="M 794 531 
L 1825 531 
L 1825 4091 
L 703 3866 
L 703 4441 
L 1819 4666 
L 2450 4666 
L 2450 531 
L 3481 531 
L 3481 0 
L 794 0 
L 794 531 
z
" transform="scale(0.015625)"/>
       </defs>
       <use xlink:href="#DejaVuSans-31"/>
       <use xlink:href="#DejaVuSans-30" x="63.623047"/>
       <use xlink:href="#DejaVuSans-30" x="127.246094"/>
      </g>
     </g>
    </g>
    <g id="xtick_3">
     <g id="line2d_3">
      <g>
       <use xlink:href="#m69f9f9c167" x="187.351365" y="256.68" style="stroke: #000000; stroke-width: 0.8"/>
      </g>
     </g>
     <g id="text_3">
      <!-- 200 -->
      <g transform="translate(177.807615 271.278437)scale(0.1 -0.1)">
       <defs>
        <path id="DejaVuSans-32" d="M 1228 531 
L 3431 531 
L 3431 0 
L 469 0 
L 469 531 
Q 828 903 1448 1529 
Q 2069 2156 2228 2338 
Q 2531 2678 2651 2914 
Q 2772 3150 2772 3378 
Q 2772 3750 2511 3984 
Q 2250 4219 1831 4219 
Q 1534 4219 1204 4116 
Q 875 4013 500 3803 
L 500 4441 
Q 881 4594 1212 4672 
Q 1544 4750 1819 4750 
Q 2544 4750 2975 4387 
Q 3406 4025 3406 3419 
Q 3406 3131 3298 2873 
Q 3191 2616 2906 2266 
Q 2828 2175 2409 1742 
Q 1991 1309 1228 531 
z
" transform="scale(0.015625)"/>
       </defs>
       <use xlink:href="#DejaVuSans-32"/>
       <use xlink:href="#DejaVuSans-30" x="63.623047"/>
       <use xlink:href="#DejaVuSans-30" x="127.246094"/>
      </g>
     </g>
    </g>
    <g id="xtick_4">
     <g id="line2d_4">
      <g>
       <use xlink:href="#m69f9f9c167" x="248.346082" y="256.68" style="stroke: #000000; stroke-width: 0.8"/>
      </g>
     </g>
     <g id="text_4">
      <!-- 300 -->
      <g transform="translate(238.802332 271.278437)scale(0.1 -0.1)">
       <defs>
        <path id="DejaVuSans-33" d="M 2597 2516 
Q 3050 2419 3304 2112 
Q 3559 1806 3559 1356 
Q 3559 666 3084 287 
Q 2609 -91 1734 -91 
Q 1441 -91 1130 -33 
Q 819 25 488 141 
L 488 750 
Q 750 597 1062 519 
Q 1375 441 1716 441 
Q 2309 441 2620 675 
Q 2931 909 2931 1356 
Q 2931 1769 2642 2001 
Q 2353 2234 1838 2234 
L 1294 2234 
L 1294 2753 
L 1863 2753 
Q 2328 2753 2575 2939 
Q 2822 3125 2822 3475 
Q 2822 3834 2567 4026 
Q 2313 4219 1838 4219 
Q 1578 4219 1281 4162 
Q 984 4106 628 3988 
L 628 4550 
Q 988 4650 1302 4700 
Q 1616 4750 1894 4750 
Q 2613 4750 3031 4423 
Q 3450 4097 3450 3541 
Q 3450 3153 3228 2886 
Q 3006 2619 2597 2516 
z
" transform="scale(0.015625)"/>
       </defs>
       <use xlink:href="#DejaVuSans-33"/>
       <use xlink:href="#DejaVuSans-30" x="63.623047"/>
       <use xlink:href="#DejaVuSans-30" x="127.246094"/>
      </g>
     </g>
    </g>
    <g id="xtick_5">
     <g id="line2d_5">
      <g>
       <use xlink:href="#m69f9f9c167" x="309.340799" y="256.68" style="stroke: #000000; stroke-width: 0.8"/>
      </g>
     </g>
     <g id="text_5">
      <!-- 400 -->
      <g transform="translate(299.797049 271.278437)scale(0.1 -0.1)">
       <defs>
        <path id="DejaVuSans-34" d="M 2419 4116 
L 825 1625 
L 2419 1625 
L 2419 4116 
z
M 2253 4666 
L 3047 4666 
L 3047 1625 
L 3713 1625 
L 3713 1100 
L 3047 1100 
L 3047 0 
L 2419 0 
L 2419 1100 
L 313 1100 
L 313 1709 
L 2253 4666 
z
" transform="scale(0.015625)"/>
       </defs>
       <use xlink:href="#DejaVuSans-34"/>
       <use xlink:href="#DejaVuSans-30" x="63.623047"/>
       <use xlink:href="#DejaVuSans-30" x="127.246094"/>
      </g>
     </g>
    </g>
    <g id="xtick_6">
     <g id="line2d_6">
      <g>
       <use xlink:href="#m69f9f9c167" x="370.335515" y="256.68" style="stroke: #000000; stroke-width: 0.8"/>
      </g>
     </g>
     <g id="text_6">
      <!-- 500 -->
      <g transform="translate(360.791765 271.278437)scale(0.1 -0.1)">
       <defs>
        <path id="DejaVuSans-35" d="M 691 4666 
L 3169 4666 
L 3169 4134 
L 1269 4134 
L 1269 2991 
Q 1406 3038 1543 3061 
Q 1681 3084 1819 3084 
Q 2600 3084 3056 2656 
Q 3513 2228 3513 1497 
Q 3513 744 3044 326 
Q 2575 -91 1722 -91 
Q 1428 -91 1123 -41 
Q 819 9 494 109 
L 494 744 
Q 775 591 1075 516 
Q 1375 441 1709 441 
Q 2250 441 2565 725 
Q 2881 1009 2881 1497 
Q 2881 1984 2565 2268 
Q 2250 2553 1709 2553 
Q 1456 2553 1204 2497 
Q 953 2441 691 2322 
L 691 4666 
z
" transform="scale(0.015625)"/>
       </defs>
       <use xlink:href="#DejaVuSans-35"/>
       <use xlink:href="#DejaVuSans-30" x="63.623047"/>
       <use xlink:href="#DejaVuSans-30" x="127.246094"/>
      </g>
     </g>
    </g>
    <g id="text_7">
     <!-- Groups of experiments -->
     <g transform="translate(160.397656 284.956562)scale(0.1 -0.1)">
      <defs>
       <path id="DejaVuSans-47" d="M 3809 666 
L 3809 1919 
L 2778 1919 
L 2778 2438 
L 4434 2438 
L 4434 434 
Q 4069 175 3628 42 
Q 3188 -91 2688 -91 
Q 1594 -91 976 548 
Q 359 1188 359 2328 
Q 359 3472 976 4111 
Q 1594 4750 2688 4750 
Q 3144 4750 3555 4637 
Q 3966 4525 4313 4306 
L 4313 3634 
Q 3963 3931 3569 4081 
Q 3175 4231 2741 4231 
Q 1884 4231 1454 3753 
Q 1025 3275 1025 2328 
Q 1025 1384 1454 906 
Q 1884 428 2741 428 
Q 3075 428 3337 486 
Q 3600 544 3809 666 
z
" transform="scale(0.015625)"/>
       <path id="DejaVuSans-72" d="M 2631 2963 
Q 2534 3019 2420 3045 
Q 2306 3072 2169 3072 
Q 1681 3072 1420 2755 
Q 1159 2438 1159 1844 
L 1159 0 
L 581 0 
L 581 3500 
L 1159 3500 
L 1159 2956 
Q 1341 3275 1631 3429 
Q 1922 3584 2338 3584 
Q 2397 3584 2469 3576 
Q 2541 3569 2628 3553 
L 2631 2963 
z
" transform="scale(0.015625)"/>
       <path id="DejaVuSans-6f" d="M 1959 3097 
Q 1497 3097 1228 2736 
Q 959 2375 959 1747 
Q 959 1119 1226 758 
Q 1494 397 1959 397 
Q 2419 397 2687 759 
Q 2956 1122 2956 1747 
Q 2956 2369 2687 2733 
Q 2419 3097 1959 3097 
z
M 1959 3584 
Q 2709 3584 3137 3096 
Q 3566 2609 3566 1747 
Q 3566 888 3137 398 
Q 2709 -91 1959 -91 
Q 1206 -91 779 398 
Q 353 888 353 1747 
Q 353 2609 779 3096 
Q 1206 3584 1959 3584 
z
" transform="scale(0.015625)"/>
       <path id="DejaVuSans-75" d="M 544 1381 
L 544 3500 
L 1119 3500 
L 1119 1403 
Q 1119 906 1312 657 
Q 1506 409 1894 409 
Q 2359 409 2629 706 
Q 2900 1003 2900 1516 
L 2900 3500 
L 3475 3500 
L 3475 0 
L 2900 0 
L 2900 538 
Q 2691 219 2414 64 
Q 2138 -91 1772 -91 
Q 1169 -91 856 284 
Q 544 659 544 1381 
z
M 1991 3584 
L 1991 3584 
z
" transform="scale(0.015625)"/>
       <path id="DejaVuSans-70" d="M 1159 525 
L 1159 -1331 
L 581 -1331 
L 581 3500 
L 1159 3500 
L 1159 2969 
Q 1341 3281 1617 3432 
Q 1894 3584 2278 3584 
Q 2916 3584 3314 3078 
Q 3713 2572 3713 1747 
Q 3713 922 3314 415 
Q 2916 -91 2278 -91 
Q 1894 -91 1617 61 
Q 1341 213 1159 525 
z
M 3116 1747 
Q 3116 2381 2855 2742 
Q 2594 3103 2138 3103 
Q 1681 3103 1420 2742 
Q 1159 2381 1159 1747 
Q 1159 1113 1420 752 
Q 1681 391 2138 391 
Q 2594 391 2855 752 
Q 3116 1113 3116 1747 
z
" transform="scale(0.015625)"/>
       <path id="DejaVuSans-73" d="M 2834 3397 
L 2834 2853 
Q 2591 2978 2328 3040 
Q 2066 3103 1784 3103 
Q 1356 3103 1142 2972 
Q 928 2841 928 2578 
Q 928 2378 1081 2264 
Q 1234 2150 1697 2047 
L 1894 2003 
Q 2506 1872 2764 1633 
Q 3022 1394 3022 966 
Q 3022 478 2636 193 
Q 2250 -91 1575 -91 
Q 1294 -91 989 -36 
Q 684 19 347 128 
L 347 722 
Q 666 556 975 473 
Q 1284 391 1588 391 
Q 1994 391 2212 530 
Q 2431 669 2431 922 
Q 2431 1156 2273 1281 
Q 2116 1406 1581 1522 
L 1381 1569 
Q 847 1681 609 1914 
Q 372 2147 372 2553 
Q 372 3047 722 3315 
Q 1072 3584 1716 3584 
Q 2034 3584 2315 3537 
Q 2597 3491 2834 3397 
z
" transform="scale(0.015625)"/>
       <path id="DejaVuSans-20" transform="scale(0.015625)"/>
       <path id="DejaVuSans-66" d="M 2375 4863 
L 2375 4384 
L 1825 4384 
Q 1516 4384 1395 4259 
Q 1275 4134 1275 3809 
L 1275 3500 
L 2222 3500 
L 2222 3053 
L 1275 3053 
L 1275 0 
L 697 0 
L 697 3053 
L 147 3053 
L 147 3500 
L 697 3500 
L 697 3744 
Q 697 4328 969 4595 
Q 1241 4863 1831 4863 
L 2375 4863 
z
" transform="scale(0.015625)"/>
       <path id="DejaVuSans-65" d="M 3597 1894 
L 3597 1613 
L 953 1613 
Q 991 1019 1311 708 
Q 1631 397 2203 397 
Q 2534 397 2845 478 
Q 3156 559 3463 722 
L 3463 178 
Q 3153 47 2828 -22 
Q 2503 -91 2169 -91 
Q 1331 -91 842 396 
Q 353 884 353 1716 
Q 353 2575 817 3079 
Q 1281 3584 2069 3584 
Q 2775 3584 3186 3129 
Q 3597 2675 3597 1894 
z
M 3022 2063 
Q 3016 2534 2758 2815 
Q 2500 3097 2075 3097 
Q 1594 3097 1305 2825 
Q 1016 2553 972 2059 
L 3022 2063 
z
" transform="scale(0.015625)"/>
       <path id="DejaVuSans-78" d="M 3513 3500 
L 2247 1797 
L 3578 0 
L 2900 0 
L 1881 1375 
L 863 0 
L 184 0 
L 1544 1831 
L 300 3500 
L 978 3500 
L 1906 2253 
L 2834 3500 
L 3513 3500 
z
" transform="scale(0.015625)"/>
       <path id="DejaVuSans-69" d="M 603 3500 
L 1178 3500 
L 1178 0 
L 603 0 
L 603 3500 
z
M 603 4863 
L 1178 4863 
L 1178 4134 
L 603 4134 
L 603 4863 
z
" transform="scale(0.015625)"/>
       <path id="DejaVuSans-6d" d="M 3328 2828 
Q 3544 3216 3844 3400 
Q 4144 3584 4550 3584 
Q 5097 3584 5394 3201 
Q 5691 2819 5691 2113 
L 5691 0 
L 5113 0 
L 5113 2094 
Q 5113 2597 4934 2840 
Q 4756 3084 4391 3084 
Q 3944 3084 3684 2787 
Q 3425 2491 3425 1978 
L 3425 0 
L 2847 0 
L 2847 2094 
Q 2847 2600 2669 2842 
Q 2491 3084 2119 3084 
Q 1678 3084 1418 2786 
Q 1159 2488 1159 1978 
L 1159 0 
L 581 0 
L 581 3500 
L 1159 3500 
L 1159 2956 
Q 1356 3278 1631 3431 
Q 1906 3584 2284 3584 
Q 2666 3584 2933 3390 
Q 3200 3197 3328 2828 
z
" transform="scale(0.015625)"/>
       <path id="DejaVuSans-6e" d="M 3513 2113 
L 3513 0 
L 2938 0 
L 2938 2094 
Q 2938 2591 2744 2837 
Q 2550 3084 2163 3084 
Q 1697 3084 1428 2787 
Q 1159 2491 1159 1978 
L 1159 0 
L 581 0 
L 581 3500 
L 1159 3500 
L 1159 2956 
Q 1366 3272 1645 3428 
Q 1925 3584 2291 3584 
Q 2894 3584 3203 3211 
Q 3513 2838 3513 2113 
z
" transform="scale(0.015625)"/>
       <path id="DejaVuSans-74" d="M 1172 4494 
L 1172 3500 
L 2356 3500 
L 2356 3053 
L 1172 3053 
L 1172 1153 
Q 1172 725 1289 603 
Q 1406 481 1766 481 
L 2356 481 
L 2356 0 
L 1766 0 
Q 1100 0 847 248 
Q 594 497 594 1153 
L 594 3053 
L 172 3053 
L 172 3500 
L 594 3500 
L 594 4494 
L 1172 4494 
z
" transform="scale(0.015625)"/>
      </defs>
      <use xlink:href="#DejaVuSans-47"/>
      <use xlink:href="#DejaVuSans-72" x="77.490234"/>
      <use xlink:href="#DejaVuSans-6f" x="116.353516"/>
      <use xlink:href="#DejaVuSans-75" x="177.535156"/>
      <use xlink:href="#DejaVuSans-70" x="240.914062"/>
      <use xlink:href="#DejaVuSans-73" x="304.390625"/>
      <use xlink:href="#DejaVuSans-20" x="356.490234"/>
      <use xlink:href="#DejaVuSans-6f" x="388.277344"/>
      <use xlink:href="#DejaVuSans-66" x="449.458984"/>
      <use xlink:href="#DejaVuSans-20" x="484.664062"/>
      <use xlink:href="#DejaVuSans-65" x="516.451172"/>
      <use xlink:href="#DejaVuSans-78" x="576.224609"/>
      <use xlink:href="#DejaVuSans-70" x="635.404297"/>
      <use xlink:href="#DejaVuSans-65" x="698.880859"/>
      <use xlink:href="#DejaVuSans-72" x="760.404297"/>
      <use xlink:href="#DejaVuSans-69" x="801.517578"/>
      <use xlink:href="#DejaVuSans-6d" x="829.300781"/>
      <use xlink:href="#DejaVuSans-65" x="926.712891"/>
      <use xlink:href="#DejaVuSans-6e" x="988.236328"/>
      <use xlink:href="#DejaVuSans-74" x="1051.615234"/>
      <use xlink:href="#DejaVuSans-73" x="1090.824219"/>
     </g>
    </g>
   </g>
   <g id="matplotlib.axis_2">
    <g id="ytick_1">
     <g id="line2d_7">
      <defs>
       <path id="m402ee78b86" d="M 0 0 
L -3.5 0 
" style="stroke: #000000; stroke-width: 0.8"/>
      </defs>
      <g>
       <use xlink:href="#m402ee78b86" x="50.14375" y="245.34" style="stroke: #000000; stroke-width: 0.8"/>
      </g>
     </g>
     <g id="text_8">
      <!-- 0.00 -->
      <g transform="translate(20.878125 249.139219)scale(0.1 -0.1)">
       <defs>
        <path id="DejaVuSans-2e" d="M 684 794 
L 1344 794 
L 1344 0 
L 684 0 
L 684 794 
z
" transform="scale(0.015625)"/>
       </defs>
       <use xlink:href="#DejaVuSans-30"/>
       <use xlink:href="#DejaVuSans-2e" x="63.623047"/>
       <use xlink:href="#DejaVuSans-30" x="95.410156"/>
       <use xlink:href="#DejaVuSans-30" x="159.033203"/>
      </g>
     </g>
    </g>
    <g id="ytick_2">
     <g id="line2d_8">
      <g>
       <use xlink:href="#m402ee78b86" x="50.14375" y="207.540002" style="stroke: #000000; stroke-width: 0.8"/>
      </g>
     </g>
     <g id="text_9">
      <!-- 0.05 -->
      <g transform="translate(20.878125 211.33922)scale(0.1 -0.1)">
       <use xlink:href="#DejaVuSans-30"/>
       <use xlink:href="#DejaVuSans-2e" x="63.623047"/>
       <use xlink:href="#DejaVuSans-30" x="95.410156"/>
       <use xlink:href="#DejaVuSans-35" x="159.033203"/>
      </g>
     </g>
    </g>
    <g id="ytick_3">
     <g id="line2d_9">
      <g>
       <use xlink:href="#m402ee78b86" x="50.14375" y="169.740003" style="stroke: #000000; stroke-width: 0.8"/>
      </g>
     </g>
     <g id="text_10">
      <!-- 0.10 -->
      <g transform="translate(20.878125 173.539222)scale(0.1 -0.1)">
       <use xlink:href="#DejaVuSans-30"/>
       <use xlink:href="#DejaVuSans-2e" x="63.623047"/>
       <use xlink:href="#DejaVuSans-31" x="95.410156"/>
       <use xlink:href="#DejaVuSans-30" x="159.033203"/>
      </g>
     </g>
    </g>
    <g id="ytick_4">
     <g id="line2d_10">
      <g>
       <use xlink:href="#m402ee78b86" x="50.14375" y="131.940005" style="stroke: #000000; stroke-width: 0.8"/>
      </g>
     </g>
     <g id="text_11">
      <!-- 0.15 -->
      <g transform="translate(20.878125 135.739223)scale(0.1 -0.1)">
       <use xlink:href="#DejaVuSans-30"/>
       <use xlink:href="#DejaVuSans-2e" x="63.623047"/>
       <use xlink:href="#DejaVuSans-31" x="95.410156"/>
       <use xlink:href="#DejaVuSans-35" x="159.033203"/>
      </g>
     </g>
    </g>
    <g id="ytick_5">
     <g id="line2d_11">
      <g>
       <use xlink:href="#m402ee78b86" x="50.14375" y="94.140006" style="stroke: #000000; stroke-width: 0.8"/>
      </g>
     </g>
     <g id="text_12">
      <!-- 0.20 -->
      <g transform="translate(20.878125 97.939225)scale(0.1 -0.1)">
       <use xlink:href="#DejaVuSans-30"/>
       <use xlink:href="#DejaVuSans-2e" x="63.623047"/>
       <use xlink:href="#DejaVuSans-32" x="95.410156"/>
       <use xlink:href="#DejaVuSans-30" x="159.033203"/>
      </g>
     </g>
    </g>
    <g id="ytick_6">
     <g id="line2d_12">
      <g>
       <use xlink:href="#m402ee78b86" x="50.14375" y="56.340008" style="stroke: #000000; stroke-width: 0.8"/>
      </g>
     </g>
     <g id="text_13">
      <!-- 0.25 -->
      <g transform="translate(20.878125 60.139226)scale(0.1 -0.1)">
       <use xlink:href="#DejaVuSans-30"/>
       <use xlink:href="#DejaVuSans-2e" x="63.623047"/>
       <use xlink:href="#DejaVuSans-32" x="95.410156"/>
       <use xlink:href="#DejaVuSans-35" x="159.033203"/>
      </g>
     </g>
    </g>
    <g id="ytick_7">
     <g id="line2d_13">
      <g>
       <use xlink:href="#m402ee78b86" x="50.14375" y="18.540009" style="stroke: #000000; stroke-width: 0.8"/>
      </g>
     </g>
     <g id="text_14">
      <!-- 0.30 -->
      <g transform="translate(20.878125 22.339228)scale(0.1 -0.1)">
       <use xlink:href="#DejaVuSans-30"/>
       <use xlink:href="#DejaVuSans-2e" x="63.623047"/>
       <use xlink:href="#DejaVuSans-33" x="95.410156"/>
       <use xlink:href="#DejaVuSans-30" x="159.033203"/>
      </g>
     </g>
    </g>
    <g id="text_15">
     <!-- Estimated probability -->
     <g transform="translate(14.798438 185.463437)rotate(-90)scale(0.1 -0.1)">
      <defs>
       <path id="DejaVuSans-45" d="M 628 4666 
L 3578 4666 
L 3578 4134 
L 1259 4134 
L 1259 2753 
L 3481 2753 
L 3481 2222 
L 1259 2222 
L 1259 531 
L 3634 531 
L 3634 0 
L 628 0 
L 628 4666 
z
" transform="scale(0.015625)"/>
       <path id="DejaVuSans-61" d="M 2194 1759 
Q 1497 1759 1228 1600 
Q 959 1441 959 1056 
Q 959 750 1161 570 
Q 1363 391 1709 391 
Q 2188 391 2477 730 
Q 2766 1069 2766 1631 
L 2766 1759 
L 2194 1759 
z
M 3341 1997 
L 3341 0 
L 2766 0 
L 2766 531 
Q 2569 213 2275 61 
Q 1981 -91 1556 -91 
Q 1019 -91 701 211 
Q 384 513 384 1019 
Q 384 1609 779 1909 
Q 1175 2209 1959 2209 
L 2766 2209 
L 2766 2266 
Q 2766 2663 2505 2880 
Q 2244 3097 1772 3097 
Q 1472 3097 1187 3025 
Q 903 2953 641 2809 
L 641 3341 
Q 956 3463 1253 3523 
Q 1550 3584 1831 3584 
Q 2591 3584 2966 3190 
Q 3341 2797 3341 1997 
z
" transform="scale(0.015625)"/>
       <path id="DejaVuSans-64" d="M 2906 2969 
L 2906 4863 
L 3481 4863 
L 3481 0 
L 2906 0 
L 2906 525 
Q 2725 213 2448 61 
Q 2172 -91 1784 -91 
Q 1150 -91 751 415 
Q 353 922 353 1747 
Q 353 2572 751 3078 
Q 1150 3584 1784 3584 
Q 2172 3584 2448 3432 
Q 2725 3281 2906 2969 
z
M 947 1747 
Q 947 1113 1208 752 
Q 1469 391 1925 391 
Q 2381 391 2643 752 
Q 2906 1113 2906 1747 
Q 2906 2381 2643 2742 
Q 2381 3103 1925 3103 
Q 1469 3103 1208 2742 
Q 947 2381 947 1747 
z
" transform="scale(0.015625)"/>
       <path id="DejaVuSans-62" d="M 3116 1747 
Q 3116 2381 2855 2742 
Q 2594 3103 2138 3103 
Q 1681 3103 1420 2742 
Q 1159 2381 1159 1747 
Q 1159 1113 1420 752 
Q 1681 391 2138 391 
Q 2594 391 2855 752 
Q 3116 1113 3116 1747 
z
M 1159 2969 
Q 1341 3281 1617 3432 
Q 1894 3584 2278 3584 
Q 2916 3584 3314 3078 
Q 3713 2572 3713 1747 
Q 3713 922 3314 415 
Q 2916 -91 2278 -91 
Q 1894 -91 1617 61 
Q 1341 213 1159 525 
L 1159 0 
L 581 0 
L 581 4863 
L 1159 4863 
L 1159 2969 
z
" transform="scale(0.015625)"/>
       <path id="DejaVuSans-6c" d="M 603 4863 
L 1178 4863 
L 1178 0 
L 603 0 
L 603 4863 
z
" transform="scale(0.015625)"/>
       <path id="DejaVuSans-79" d="M 2059 -325 
Q 1816 -950 1584 -1140 
Q 1353 -1331 966 -1331 
L 506 -1331 
L 506 -850 
L 844 -850 
Q 1081 -850 1212 -737 
Q 1344 -625 1503 -206 
L 1606 56 
L 191 3500 
L 800 3500 
L 1894 763 
L 2988 3500 
L 3597 3500 
L 2059 -325 
z
" transform="scale(0.015625)"/>
      </defs>
      <use xlink:href="#DejaVuSans-45"/>
      <use xlink:href="#DejaVuSans-73" x="63.183594"/>
      <use xlink:href="#DejaVuSans-74" x="115.283203"/>
      <use xlink:href="#DejaVuSans-69" x="154.492188"/>
      <use xlink:href="#DejaVuSans-6d" x="182.275391"/>
      <use xlink:href="#DejaVuSans-61" x="279.6875"/>
      <use xlink:href="#DejaVuSans-74" x="340.966797"/>
      <use xlink:href="#DejaVuSans-65" x="380.175781"/>
      <use xlink:href="#DejaVuSans-64" x="441.699219"/>
      <use xlink:href="#DejaVuSans-20" x="505.175781"/>
      <use xlink:href="#DejaVuSans-70" x="536.962891"/>
      <use xlink:href="#DejaVuSans-72" x="600.439453"/>
      <use xlink:href="#DejaVuSans-6f" x="639.302734"/>
      <use xlink:href="#DejaVuSans-62" x="700.484375"/>
      <use xlink:href="#DejaVuSans-61" x="763.960938"/>
      <use xlink:href="#DejaVuSans-62" x="825.240234"/>
      <use xlink:href="#DejaVuSans-69" x="888.716797"/>
      <use xlink:href="#DejaVuSans-6c" x="916.5"/>
      <use xlink:href="#DejaVuSans-69" x="944.283203"/>
      <use xlink:href="#DejaVuSans-74" x="972.066406"/>
      <use xlink:href="#DejaVuSans-79" x="1011.275391"/>
     </g>
    </g>
   </g>
   <g id="line2d_14">
    <path d="M 65.361932 94.140004 
L 65.971879 94.140004 
L 66.581826 119.340001 
L 67.191773 113.040008 
L 67.80172 94.140004 
L 68.411668 81.540005 
L 69.021615 83.340005 
L 69.631562 84.690002 
L 70.241509 102.540003 
L 71.461403 101.012735 
L 72.071351 75.240011 
L 72.681298 82.509236 
L 73.291245 83.340005 
L 74.511139 94.140004 
L 75.121086 98.587062 
L 75.731034 98.340003 
L 76.950928 105.480004 
L 78.780769 104.000873 
L 79.390717 106.740003 
L 80.000664 100.188005 
L 80.610611 99.955388 
L 81.220558 96.940011 
L 81.830505 96.840009 
L 82.440452 101.960697 
L 83.0504 104.220005 
L 83.660347 103.894844 
L 84.270294 105.952503 
L 85.490188 114.151766 
L 86.100135 113.580009 
L 86.710083 117.240007 
L 87.32003 112.529195 
L 87.929977 116.024213 
L 88.539924 113.524617 
L 89.149871 113.040008 
L 89.759819 114.422933 
L 90.369766 112.140002 
L 90.979713 111.721396 
L 91.58966 113.040008 
L 92.809554 112.218262 
L 93.419502 115.050645 
L 94.029449 114.615006 
L 94.639396 117.28286 
L 95.249343 113.796009 
L 95.85929 111.928237 
L 96.469237 111.586156 
L 97.689132 113.740009 
L 98.299079 112.009099 
L 99.518973 114.034743 
L 100.738868 118.485767 
L 101.348815 115.560005 
L 102.568709 117.307745 
L 103.788603 116.58376 
L 104.398551 115.075395 
L 105.008498 115.903641 
L 105.618445 115.578807 
L 106.228392 116.375296 
L 106.838339 114.957392 
L 107.448286 115.740002 
L 108.058234 117.56536 
L 108.668181 117.240007 
L 109.278128 118.994799 
L 109.888075 117.6373 
L 110.498022 115.308001 
L 111.107969 114.034743 
L 112.327864 115.463079 
L 112.937811 115.193174 
L 113.547758 116.820004 
L 114.157705 117.473334 
L 114.767652 116.266834 
L 115.3776 116.911095 
L 115.987547 116.640007 
L 116.597494 115.485891 
L 117.817388 116.733103 
L 118.427335 118.194548 
L 119.037283 117.924271 
L 119.64723 118.500006 
L 120.257177 119.893847 
L 120.867124 119.613916 
L 121.477071 120.152904 
L 122.087018 119.071921 
L 122.696966 118.809474 
L 123.306913 120.1275 
L 123.91686 119.85959 
L 124.526807 121.140001 
L 125.136754 120.86728 
L 125.746701 119.84401 
L 126.356649 121.086536 
L 128.18649 122.490009 
L 128.796437 122.220003 
L 130.016332 123.108225 
L 131.236226 122.576707 
L 131.846173 121.630919 
L 132.45612 122.064328 
L 133.066067 120.465008 
L 133.676015 120.901065 
L 134.285962 120.666319 
L 134.895909 121.750444 
L 135.505856 120.208971 
L 136.115803 119.986155 
L 137.335698 120.822354 
L 137.945645 120.6 
L 139.165539 121.40558 
L 139.775486 121.183902 
L 140.385433 120.356129 
L 142.215275 123.308511 
L 142.825222 123.671253 
L 143.435169 122.856289 
L 144.045116 122.635388 
L 144.655064 122.994964 
L 145.265011 121.630919 
L 145.874958 121.992636 
L 146.484905 121.220604 
L 147.094852 122.140008 
L 148.314747 121.731248 
L 148.924694 122.626961 
L 149.534641 122.422023 
L 150.144588 122.760004 
L 150.754535 123.629368 
L 151.364482 123.421693 
L 151.97443 124.274272 
L 152.584377 124.065008 
L 155.024165 125.299468 
L 155.634113 126.105105 
L 156.24406 126.396008 
L 156.854007 125.681722 
L 157.463954 126.46895 
L 158.073901 126.257648 
L 158.683848 125.06728 
L 159.293796 125.35549 
L 159.903743 125.155385 
L 160.51369 125.439372 
L 161.123637 124.76279 
L 161.733584 125.045661 
L 162.953479 124.661741 
L 163.563426 125.406669 
L 167.223109 126.990003 
L 167.833056 126.348288 
L 168.443003 126.158829 
L 169.05295 126.413694 
L 169.662897 127.105123 
L 170.272845 126.47758 
L 170.882792 127.160695 
L 171.492739 126.972001 
L 172.712633 124.892544 
L 173.32258 125.144503 
L 173.932528 125.815981 
L 174.542475 126.06001 
L 175.762369 124.878462 
L 176.372316 125.123606 
L 176.982263 124.544357 
L 177.592211 125.197303 
L 178.202158 125.436781 
L 178.812105 125.269412 
L 179.422052 124.70171 
L 180.641946 125.971588 
L 181.861841 125.640006 
L 182.471788 126.260216 
L 183.081735 125.315262 
L 183.691682 125.155385 
L 184.301629 125.768577 
L 185.521524 126.212733 
L 186.131471 126.051561 
L 187.351365 124.981799 
L 187.961312 125.57763 
L 189.181207 125.269412 
L 189.791154 125.486348 
L 191.620995 125.034238 
L 192.84089 125.46001 
L 193.450837 126.028151 
L 194.060784 126.23434 
L 195.280678 125.227855 
L 195.890626 125.083265 
L 196.500573 125.290005 
L 197.720467 125.004228 
L 198.330414 125.208501 
L 198.940361 125.06728 
L 199.550309 125.611494 
L 201.990097 126.396008 
L 203.209992 127.443971 
L 203.819939 127.297895 
L 204.429886 127.483231 
L 205.039833 127.338269 
L 205.64978 127.521826 
L 206.259727 128.029664 
L 206.869675 127.884207 
L 207.479622 128.386154 
L 208.089569 128.562129 
L 209.309463 129.547604 
L 209.91941 128.445883 
L 210.529358 128.934987 
L 211.139305 128.475003 
L 212.359199 128.816037 
L 212.969146 128.67334 
L 213.579093 128.841643 
L 214.189041 128.391438 
L 214.798988 128.559516 
L 215.408935 128.420164 
L 216.018882 128.586778 
L 217.848724 127.271478 
L 219.068618 127.607194 
L 219.678565 126.880167 
L 220.898459 127.215005 
L 223.948195 126.581389 
L 224.558142 125.880464 
L 225.16809 126.047224 
L 225.778037 125.640006 
L 226.387984 125.806417 
L 226.997931 126.255789 
L 227.607878 126.418651 
L 228.217825 126.298214 
L 228.827773 126.740748 
L 229.43772 126.900005 
L 230.047667 126.500155 
L 231.267561 126.816924 
L 232.487456 127.678909 
L 233.097403 127.283486 
L 233.70735 127.163827 
L 234.927244 127.469037 
L 236.147139 128.307973 
L 237.367033 128.60078 
L 238.586927 127.828422 
L 239.196874 127.974972 
L 241.026716 127.623743 
L 241.636663 127.768975 
L 242.24661 127.653404 
L 243.466505 126.9086 
L 244.076452 126.797153 
L 244.686399 127.198985 
L 245.296346 126.831895 
L 245.906293 127.230911 
L 246.51624 127.119869 
L 247.736135 126.396008 
L 248.346082 126.288841 
L 248.956029 125.181059 
L 249.565976 124.579606 
L 250.175923 124.728161 
L 250.785871 124.627877 
L 251.395818 124.034118 
L 252.005765 124.183 
L 252.615712 124.085454 
L 253.835606 124.867749 
L 254.445554 124.525859 
L 255.055501 123.94385 
L 256.275395 123.272484 
L 256.885342 123.420003 
L 257.495289 123.805828 
L 258.105237 123.950733 
L 258.715184 124.332457 
L 259.325131 124.237806 
L 259.935078 124.616252 
L 260.545025 124.521308 
L 261.154972 124.192182 
L 261.76492 124.333189 
L 262.374867 123.773339 
L 262.984814 123.914774 
L 263.594761 123.591539 
L 264.204708 123.501474 
L 264.814655 123.181472 
L 265.424603 123.322987 
L 266.03455 123.005463 
L 266.644497 123.146651 
L 267.254444 122.603856 
L 267.864391 122.972434 
L 269.694233 122.715 
L 271.524074 123.13115 
L 272.743969 122.961123 
L 273.353916 122.655789 
L 273.963863 123.013473 
L 274.57381 122.929535 
L 275.183757 123.065226 
L 275.793704 123.418617 
L 278.233493 123.948007 
L 279.453387 124.637735 
L 280.063335 124.551341 
L 280.673282 124.892544 
L 281.283229 125.018873 
L 281.893176 124.932141 
L 282.503123 125.057648 
L 284.332965 124.8 
L 285.552859 125.048298 
L 286.162806 125.379677 
L 286.772753 125.501545 
L 289.212542 125.160657 
L 290.432436 125.401622 
L 291.042384 124.50227 
L 291.652331 124.827104 
L 292.262278 124.542149 
L 292.872225 124.663003 
L 293.482172 124.178404 
L 294.092119 124.098511 
L 294.702067 123.818524 
L 295.312014 123.740005 
L 295.921961 123.861377 
L 297.141855 123.705364 
L 297.751802 124.023777 
L 298.36175 123.945754 
L 298.971697 124.26188 
L 299.581644 124.183642 
L 300.191591 123.909953 
L 301.411485 123.756497 
L 302.021433 123.486018 
L 302.63138 123.798471 
L 303.241327 123.335908 
L 303.851274 123.068572 
L 304.461221 123.18733 
L 305.071168 122.921729 
L 305.681116 122.848865 
L 309.340799 123.550478 
L 309.950746 123.477321 
L 311.17064 123.706344 
L 311.780587 123.633334 
L 312.390534 123.746899 
L 313.000482 123.674159 
L 316.050217 124.23321 
L 316.660165 123.977296 
L 317.880059 124.562178 
L 318.490006 124.125581 
L 319.099953 124.234967 
L 319.7099 123.982107 
L 320.319848 123.910888 
L 321.539742 124.1286 
L 322.759636 123.986816 
L 323.369583 124.273021 
L 324.589478 124.486487 
L 325.199425 124.415414 
L 325.809372 124.697947 
L 326.419319 124.80294 
L 327.029266 124.380008 
L 327.639214 124.309847 
L 328.249161 124.065008 
L 328.859108 123.995895 
L 329.469055 124.275488 
L 330.688949 124.137252 
L 331.298897 123.895612 
L 331.908844 123.482469 
L 332.518791 123.415632 
L 334.95858 123.833912 
L 335.568527 123.596767 
L 337.398368 123.906449 
L 339.838157 124.983466 
L 340.448104 124.747965 
L 341.058051 124.346628 
L 342.277946 123.881542 
L 342.887893 123.153162 
L 343.49784 122.924252 
L 344.107787 123.026473 
L 344.717734 122.963534 
L 346.547576 123.26728 
L 347.157523 123.041084 
L 348.377417 123.241944 
L 350.207259 122.57077 
L 351.427153 122.771495 
L 352.0371 123.031723 
L 352.647048 122.970519 
L 353.256995 122.74973 
L 353.866942 122.689371 
L 355.086836 123.204712 
L 355.696783 122.985287 
L 356.306731 122.608621 
L 356.916678 122.86485 
L 357.526625 122.962509 
L 358.746519 122.842905 
L 359.966414 123.349099 
L 360.576361 123.444742 
L 361.186308 123.695563 
L 361.796255 123.634866 
L 362.406202 123.729348 
L 363.626097 122.991438 
L 364.845991 123.181472 
L 366.065885 123.063896 
L 366.675832 123.31091 
L 367.28578 123.252105 
L 367.895727 123.497756 
L 368.505674 123.590604 
L 369.725568 123.472803 
L 369.725568 123.472803 
" clip-path="url(#p9e6ea79d53)" style="fill: none; stroke: #1f77b4; stroke-width: 1.5; stroke-linecap: square"/>
   </g>
   <g id="line2d_15">
    <path d="M 65.361932 94.140004 
L 65.971879 56.340008 
L 66.581826 94.140004 
L 67.191773 113.040008 
L 67.80172 124.380008 
L 68.411668 131.94 
L 69.021615 137.339999 
L 69.631562 141.390002 
L 70.241509 127.74 
L 70.851456 116.820004 
L 72.071351 125.640006 
L 72.681298 123.216924 
L 73.291245 110.340002 
L 73.901192 104.220005 
L 74.511139 103.590006 
L 75.121086 107.481179 
L 75.731034 115.140002 
L 76.340981 114.034743 
L 76.950928 120.6 
L 77.560875 115.740002 
L 78.780769 120.435662 
L 79.390717 119.340001 
L 80.610611 123.216924 
L 81.220558 119.340001 
L 81.830505 118.440007 
L 82.440452 120.208971 
L 83.0504 124.380008 
L 83.660347 125.843232 
L 84.270294 124.852507 
L 84.880241 117.049094 
L 85.490188 116.375296 
L 86.100135 117.900006 
L 86.710083 117.240007 
L 88.539924 121.278463 
L 89.149871 122.490009 
L 89.759819 116.266834 
L 90.979713 111.721396 
L 91.58966 111.321827 
L 92.199607 112.620004 
L 92.809554 112.218262 
L 93.419502 113.442133 
L 94.029449 113.040008 
L 94.639396 108.02572 
L 95.249343 107.748008 
L 97.079185 111.256984 
L 97.689132 112.340006 
L 98.909026 111.69001 
L 99.518973 112.708425 
L 100.12892 109.78138 
L 100.738868 110.797632 
L 101.348815 110.52001 
L 101.958762 109.012141 
L 102.568709 106.333551 
L 103.178656 106.140003 
L 103.788603 107.133758 
L 104.398551 109.26 
L 105.008498 109.030909 
L 105.618445 107.680304 
L 106.838339 111.670443 
L 107.448286 110.340002 
L 108.058234 110.111835 
L 108.668181 111.990005 
L 110.498022 114.300006 
L 111.107969 116.024213 
L 111.717917 115.740002 
L 112.327864 117.40154 
L 112.937811 117.107088 
L 113.547758 115.875005 
L 114.157705 113.740009 
L 114.767652 113.500983 
L 115.3776 111.446027 
L 117.207441 110.842332 
L 119.037283 112.827646 
L 119.64723 112.620004 
L 120.257177 114.078463 
L 120.867124 112.218262 
L 122.087018 113.442133 
L 122.696966 112.443162 
L 123.91686 112.065775 
L 124.526807 112.654296 
L 125.136754 110.940002 
L 125.746701 110.772003 
L 126.356649 112.104359 
L 127.576543 111.755541 
L 128.18649 110.132315 
L 128.796437 110.700007 
L 130.626279 110.24 
L 131.236226 110.785882 
L 131.846173 110.634555 
L 132.45612 109.804868 
L 133.676015 110.865674 
L 134.285962 110.718955 
L 135.505856 111.736559 
L 136.115803 110.940002 
L 136.72575 110.797632 
L 137.335698 111.928237 
L 138.555592 111.634225 
L 139.165539 110.871149 
L 140.995381 112.284006 
L 141.605328 112.140002 
L 142.215275 112.593553 
L 142.825222 111.858753 
L 145.874958 114.034743 
L 146.484905 113.886278 
L 147.094852 114.300006 
L 147.704799 115.263537 
L 148.314747 115.661178 
L 148.924694 116.600872 
L 150.144588 117.360005 
L 150.754535 117.195329 
L 151.364482 117.56536 
L 151.97443 117.40154 
L 154.414218 118.825719 
L 155.024165 118.658925 
L 155.634113 119.00175 
L 156.854007 117.671129 
L 158.073901 117.363531 
L 158.683848 116.721827 
L 159.293796 116.576133 
L 159.903743 115.9477 
L 160.51369 115.808799 
L 161.123637 115.193174 
L 161.733584 115.536235 
L 162.343531 116.347504 
L 162.953479 116.209572 
L 163.563426 116.540005 
L 164.173373 117.330186 
L 164.78332 117.188784 
L 165.393267 117.507276 
L 166.003214 117.366516 
L 166.613162 118.132814 
L 167.223109 117.990004 
L 167.833056 118.74355 
L 169.05295 119.340001 
L 169.662897 120.07256 
L 170.882792 120.64345 
L 171.492739 120.492 
L 172.712633 121.048482 
L 173.32258 121.746749 
L 173.932528 121.170169 
L 174.542475 121.440007 
L 175.762369 121.140001 
L 176.372316 121.40558 
L 176.982263 122.079131 
L 178.202158 122.591622 
L 178.812105 122.035196 
L 179.422052 120.680434 
L 180.641946 119.605265 
L 181.251894 120.263562 
L 183.081735 121.028666 
L 183.691682 121.666157 
L 184.301629 120.754289 
L 184.911577 120.619196 
L 186.131471 121.112874 
L 187.351365 122.348957 
L 187.961312 121.460802 
L 188.57126 121.326216 
L 189.791154 120.323415 
L 190.401101 120.563309 
L 191.011048 120.070442 
L 191.620995 120.672695 
L 192.230943 119.460585 
L 192.84089 118.980008 
L 194.060784 119.458872 
L 194.670731 119.340001 
L 195.280678 119.928792 
L 195.890626 119.80884 
L 197.11052 120.965806 
L 197.720467 121.189546 
L 198.330414 121.066033 
L 198.940361 120.6 
L 200.160256 121.042703 
L 200.770203 120.583057 
L 201.38015 120.465008 
L 201.990097 121.020003 
L 202.600044 120.566553 
L 203.209992 120.783173 
L 205.039833 120.435662 
L 205.64978 119.994548 
L 206.259727 120.208971 
L 206.869675 119.772622 
L 207.479622 119.663078 
L 208.089569 119.232767 
L 209.91941 119.869413 
L 211.139305 119.655001 
L 212.359199 120.068932 
L 213.579093 119.856402 
L 214.189041 120.368577 
L 214.798988 119.647318 
L 215.408935 119.850127 
L 216.018882 119.746452 
L 216.628829 118.73278 
L 217.238776 118.634401 
L 218.458671 119.640007 
L 219.068618 119.240405 
L 219.678565 119.736854 
L 220.288512 119.932949 
L 220.898459 119.536885 
L 221.508407 118.555566 
L 222.118354 117.874884 
L 222.728301 117.783253 
L 223.338248 117.40154 
L 223.948195 117.602073 
L 224.558142 117.223977 
L 226.997931 118.013684 
L 227.607878 117.924271 
L 228.217825 118.117617 
L 228.827773 118.590567 
L 230.047667 118.41012 
L 230.657614 118.598825 
L 231.267561 118.509232 
L 231.877508 118.144384 
L 232.487456 118.606913 
L 233.097403 117.970436 
L 233.70735 118.157339 
L 234.317297 118.070945 
L 235.537191 118.440007 
L 236.147139 118.084486 
L 236.757086 117.99958 
L 237.367033 118.182404 
L 237.97698 118.630142 
L 238.586927 118.013684 
L 239.196874 117.930219 
L 239.806822 118.110734 
L 241.026716 117.944853 
L 241.636663 118.123453 
L 242.24661 118.041036 
L 242.856557 118.218092 
L 244.076452 117.540001 
L 244.686399 116.948146 
L 245.296346 117.126487 
L 247.126188 116.137328 
L 247.736135 116.567999 
L 248.346082 116.242332 
L 249.565976 117.09446 
L 250.175923 117.267641 
L 250.785871 117.687543 
L 251.395818 117.857648 
L 252.005765 118.272909 
L 252.615712 118.440007 
L 253.225659 118.361364 
L 253.835606 118.039357 
L 255.055501 118.370771 
L 255.665448 118.776422 
L 256.275395 118.938732 
L 256.885342 118.380008 
L 257.495289 118.303292 
L 258.105237 117.988585 
L 258.715184 117.913592 
L 259.325131 118.313047 
L 259.935078 117.528759 
L 260.545025 117.691407 
L 261.76492 117.545578 
L 262.374867 117.706671 
L 262.984814 117.634157 
L 263.594761 118.025895 
L 264.204708 117.490468 
L 266.03455 117.965457 
L 266.644497 117.893483 
L 267.254444 118.277359 
L 267.864391 118.431896 
L 269.694233 117.540001 
L 270.30418 117.694899 
L 270.914127 117.40154 
L 271.524074 117.332923 
L 272.134021 117.042358 
L 272.743969 117.196895 
L 273.353916 117.129483 
L 273.963863 117.503265 
L 274.57381 117.655121 
L 275.183757 117.586966 
L 275.793704 117.956186 
L 276.403652 118.105428 
L 277.013599 118.036552 
L 277.623546 118.401322 
L 279.453387 118.194548 
L 280.063335 117.698076 
L 280.673282 117.845088 
L 281.283229 118.204236 
L 281.893176 118.348995 
L 282.503123 118.069413 
L 283.723018 118.357275 
L 284.332965 117.870006 
L 284.942912 118.013684 
L 285.552859 117.947737 
L 286.162806 118.090423 
L 286.772753 118.024622 
L 287.382701 118.166306 
L 287.992648 117.894103 
L 289.212542 117.765003 
L 289.822489 117.905864 
L 290.432436 117.841629 
L 291.652331 118.120648 
L 292.262278 117.853683 
L 292.872225 117.790271 
L 294.092119 118.066597 
L 294.702067 117.602073 
L 295.921961 117.877205 
L 296.531908 117.814739 
L 297.141855 118.149453 
L 297.751802 118.086604 
L 298.36175 118.418851 
L 298.971697 118.552502 
L 299.581644 118.489101 
L 300.191591 118.621874 
L 300.801538 118.167917 
L 301.411485 117.521448 
L 303.241327 118.502158 
L 303.851274 118.632857 
L 304.461221 118.378172 
L 305.071168 118.508534 
L 305.681116 118.064051 
L 306.291063 118.194548 
L 306.90101 117.943535 
L 307.510957 118.263627 
L 308.120904 118.013684 
L 308.730851 118.332007 
L 309.340799 118.460206 
L 309.950746 118.023586 
L 311.17064 118.653867 
L 311.780587 118.593339 
L 312.390534 118.346899 
L 313.000482 118.28743 
L 313.610429 117.857648 
L 314.220376 117.984507 
L 314.830323 117.741954 
L 315.44027 117.684535 
L 316.050217 117.443886 
L 316.660165 117.387458 
L 319.099953 117.889642 
L 319.7099 117.832831 
L 320.319848 117.956715 
L 321.539742 117.843567 
L 322.149689 117.96655 
L 322.759636 117.910212 
L 323.979531 118.154128 
L 324.589478 117.742821 
L 325.809372 117.632523 
L 326.419319 117.930219 
L 328.859108 117.012065 
L 329.469055 117.13355 
L 330.688949 117.721654 
L 332.518791 118.07713 
L 333.738685 118.654295 
L 334.348632 118.598825 
L 335.568527 118.148112 
L 336.178474 118.094163 
L 338.008315 117.427506 
L 338.618263 117.375641 
L 339.22821 117.156002 
L 339.838157 117.272598 
L 340.448104 117.054164 
L 342.277946 117.40154 
L 342.887893 117.682113 
L 343.49784 117.630597 
L 344.107787 117.744376 
L 344.717734 117.69295 
L 345.327681 117.4774 
L 345.937629 117.590763 
L 346.547576 117.212734 
L 347.157523 117.162896 
L 347.76747 117.439143 
L 348.987365 117.663615 
L 349.597312 117.451355 
L 350.207259 117.563084 
L 350.817206 117.835523 
L 351.427153 117.945957 
L 352.0371 117.734913 
L 352.647048 117.845088 
L 353.256995 117.635148 
L 353.866942 117.745063 
L 354.476889 118.013684 
L 355.696783 117.913592 
L 356.916678 118.129987 
L 357.526625 117.607503 
L 358.136572 117.873059 
L 358.746519 117.980665 
L 359.356466 117.618261 
L 359.966414 117.569753 
L 360.576361 117.833203 
L 361.186308 117.784447 
L 361.796255 117.891129 
L 362.406202 117.842463 
L 363.016149 117.948593 
L 363.626097 118.208573 
L 364.236044 118.159558 
L 365.455938 118.36881 
L 366.675832 117.965457 
L 367.28578 117.917422 
L 367.895727 118.021693 
L 368.505674 117.821938 
L 369.115621 117.925972 
L 369.725568 117.727208 
L 369.725568 117.727208 
" clip-path="url(#p9e6ea79d53)" style="fill: none; stroke: #ff7f0e; stroke-width: 1.5; stroke-linecap: square"/>
   </g>
   <g id="line2d_16">
    <path d="M 65.361932 169.740002 
L 65.971879 169.740002 
L 66.581826 119.340001 
L 67.191773 150.840004 
L 67.80172 154.620006 
L 68.411668 157.140003 
L 69.021615 115.740002 
L 69.631562 122.490009 
L 70.241509 127.74 
L 70.851456 124.380008 
L 71.461403 114.758188 
L 72.071351 113.040008 
L 72.681298 117.40154 
L 73.291245 115.740002 
L 74.511139 122.490009 
L 75.121086 120.822354 
L 76.340981 125.971588 
L 76.950928 128.160004 
L 77.560875 122.940001 
L 78.170822 125.06728 
L 78.780769 130.296531 
L 79.390717 131.94 
L 80.000664 127.404002 
L 80.610611 126.124616 
L 81.220558 127.74 
L 82.440452 125.422767 
L 83.0504 126.900005 
L 83.660347 130.720646 
L 84.270294 122.490009 
L 84.880241 121.630919 
L 85.490188 125.269412 
L 86.100135 126.540001 
L 87.32003 124.788655 
L 87.929977 125.971588 
L 88.539924 129.032308 
L 89.149871 130.050002 
L 89.759819 132.86195 
L 90.369766 131.94 
L 90.979713 129.302799 
L 91.58966 130.22182 
L 92.809554 128.653051 
L 94.639396 131.168576 
L 95.249343 130.428008 
L 96.469237 131.94 
L 97.689132 124.940004 
L 98.299079 123.005463 
L 98.909026 123.840006 
L 99.518973 123.318954 
L 101.348815 125.640006 
L 101.958762 125.123606 
L 102.568709 125.843232 
L 103.178656 122.940001 
L 105.618445 125.734038 
L 106.838339 124.818261 
L 107.448286 125.46001 
L 108.058234 125.018873 
L 109.278128 126.244118 
L 109.888075 124.788655 
L 111.107969 125.971588 
L 111.717917 122.612733 
L 112.327864 120.309232 
L 114.157705 119.340001 
L 114.767652 119.954635 
L 115.3776 119.643623 
L 115.987547 120.240007 
L 116.597494 119.932949 
L 117.817388 121.077941 
L 120.257177 119.893847 
L 120.867124 121.257397 
L 121.477071 120.965806 
L 122.696966 118.809474 
L 123.306913 118.552502 
L 123.91686 119.080213 
L 124.526807 117.28286 
L 125.136754 117.812734 
L 125.746701 116.820004 
L 126.966596 117.857648 
L 127.576543 116.159419 
L 128.18649 116.674625 
L 129.406384 116.24944 
L 130.016332 117.455895 
L 131.236226 115.640923 
L 131.846173 116.132732 
L 132.45612 115.934598 
L 133.066067 116.415006 
L 133.676015 115.548852 
L 134.285962 115.36106 
L 135.505856 116.298624 
L 136.72575 115.923051 
L 137.335698 115.104708 
L 137.945645 115.560005 
L 139.165539 115.208855 
L 140.385433 113.649684 
L 140.995381 113.493604 
L 141.605328 113.940002 
L 142.825222 112.44938 
L 143.435169 112.893491 
L 144.045116 112.749239 
L 144.655064 113.184282 
L 146.484905 112.757914 
L 147.094852 113.180001 
L 147.704799 113.040008 
L 148.924694 111.670443 
L 149.534641 112.632092 
L 150.144588 112.500006 
L 150.754535 113.442133 
L 151.364482 113.838592 
L 151.97443 114.758188 
L 152.584377 115.140002 
L 153.194324 116.037934 
L 153.804271 116.405757 
L 154.414218 115.740002 
L 155.024165 115.59406 
L 155.634113 114.94269 
L 156.24406 114.804004 
L 156.854007 115.668478 
L 157.463954 116.024213 
L 158.073901 115.881178 
L 158.683848 116.230909 
L 159.903743 117.886161 
L 160.51369 117.734913 
L 161.123637 118.542532 
L 162.343531 118.237502 
L 162.953479 117.148702 
L 163.563426 116.540005 
L 164.173373 117.330186 
L 164.78332 117.188784 
L 165.393267 117.507276 
L 166.003214 117.366516 
L 166.613162 117.68013 
L 167.223109 117.09001 
L 167.833056 116.954207 
L 168.443003 116.375296 
L 169.05295 116.687378 
L 169.662897 115.237683 
L 170.272845 115.552716 
L 170.882792 115.429666 
L 171.492739 116.172002 
L 172.712633 116.777297 
L 173.32258 116.2254 
L 173.932528 116.102011 
L 175.152422 116.6947 
L 176.372316 115.621975 
L 177.592211 116.207037 
L 178.202158 115.275489 
L 178.812105 115.162465 
L 179.422052 115.854896 
L 180.031999 115.340005 
L 180.641946 115.626324 
L 181.251894 114.722206 
L 181.861841 115.00875 
L 182.471788 114.508921 
L 183.081735 114.403917 
L 183.691682 115.075395 
L 184.301629 115.35429 
L 184.911577 114.47909 
L 185.521524 114.376374 
L 186.131471 114.654581 
L 187.351365 113.698215 
L 187.961312 113.975645 
L 188.57126 113.505523 
L 189.181207 113.781184 
L 189.791154 113.316593 
L 190.401101 113.223496 
L 191.011048 113.861742 
L 191.620995 114.130385 
L 192.84089 115.380008 
L 193.450837 114.92105 
L 194.060784 115.179633 
L 194.670731 115.080848 
L 195.890626 115.589306 
L 196.500573 114.44 
L 197.720467 114.947343 
L 198.330414 114.852332 
L 198.940361 115.101824 
L 199.550309 114.664889 
L 200.160256 114.912973 
L 200.770203 115.497854 
L 202.600044 115.214341 
L 203.209992 114.455422 
L 203.819939 114.697896 
L 205.64978 114.430909 
L 206.259727 113.365867 
L 207.479622 113.847694 
L 208.089569 113.442133 
L 208.699516 113.360347 
L 209.309463 112.322285 
L 209.91941 112.881178 
L 210.529358 112.486454 
L 211.139305 112.725008 
L 212.969146 112.495557 
L 213.579093 112.730167 
L 214.189041 112.345717 
L 214.798988 112.579032 
L 215.408935 112.504377 
L 217.238776 113.19121 
L 217.848724 112.814105 
L 219.068618 113.264119 
L 219.678565 113.188822 
L 220.288512 113.70707 
L 220.898459 113.925943 
L 221.508407 113.848956 
L 222.118354 114.358608 
L 222.728301 114.572434 
L 223.338248 115.075395 
L 223.948195 114.995175 
L 224.558142 115.492672 
L 225.16809 115.124039 
L 225.778037 115.617278 
L 226.387984 115.821517 
L 226.997931 115.740002 
L 228.217825 116.707171 
L 228.827773 116.904313 
L 229.43772 116.820004 
L 230.047667 117.015287 
L 230.657614 116.097359 
L 232.487456 115.033094 
L 233.097403 115.505222 
L 233.70735 115.701012 
L 234.317297 115.351519 
L 234.927244 115.817428 
L 235.537191 115.470007 
L 236.147139 115.394101 
L 237.367033 115.778168 
L 237.97698 115.435783 
L 238.586927 115.891587 
L 239.196874 116.079864 
L 240.416769 115.927501 
L 241.026716 116.375296 
L 241.636663 116.037934 
L 242.24661 116.222482 
L 242.856557 116.146858 
L 243.466505 116.329761 
L 244.076452 116.254295 
L 244.686399 115.666789 
L 245.296346 115.59406 
L 246.51624 116.464832 
L 247.736135 116.820004 
L 250.175923 118.511057 
L 250.785871 118.431152 
L 251.395818 118.598825 
L 252.005765 118.272909 
L 252.615712 118.440007 
L 255.665448 118.051828 
L 256.275395 118.216436 
L 257.495289 118.064051 
L 258.105237 118.465557 
L 258.715184 118.626797 
L 259.325131 118.550035 
L 259.935078 118.946257 
L 261.154972 119.261741 
L 261.76492 119.652083 
L 262.984814 119.960312 
L 263.594761 119.881106 
L 264.814655 120.185122 
L 266.03455 120.943636 
L 266.644497 120.634269 
L 267.254444 121.009887 
L 267.864391 120.702165 
L 268.474338 120.169948 
L 269.084286 120.09224 
L 269.694233 120.465008 
L 270.30418 120.162558 
L 270.914127 120.532904 
L 272.134021 120.822354 
L 272.743969 120.744105 
L 273.353916 121.108425 
L 273.963863 120.588983 
L 274.57381 120.512097 
L 275.183757 120.21653 
L 275.793704 120.141165 
L 276.403652 120.284099 
L 277.623546 120.134271 
L 278.233493 119.84401 
L 279.453387 119.697955 
L 280.063335 119.839718 
L 280.673282 120.194247 
L 281.283229 119.907895 
L 281.893176 119.835516 
L 283.723018 118.989032 
L 284.332965 119.130005 
L 284.942912 118.851359 
L 286.772753 119.270776 
L 287.382701 119.61617 
L 289.822489 119.340001 
L 290.432436 118.863243 
L 291.042384 119.000387 
L 291.652331 118.730324 
L 292.262278 119.069759 
L 292.872225 118.800969 
L 293.482172 119.138409 
L 294.092119 119.272984 
L 294.702067 119.206316 
L 295.312014 119.540005 
L 295.921961 119.273514 
L 296.531908 119.207375 
L 297.141855 118.943159 
L 298.36175 119.208412 
L 298.971697 118.749385 
L 299.581644 118.685455 
L 300.191591 118.81772 
L 301.411485 119.469901 
L 302.021433 119.599136 
L 302.63138 119.921549 
L 303.241327 119.662256 
L 303.851274 119.982866 
L 304.461221 119.724733 
L 305.071168 119.851681 
L 307.510957 119.593267 
L 308.730851 119.84401 
L 309.340799 120.156959 
L 310.560693 120.403038 
L 311.17064 119.589505 
L 311.780587 119.713344 
L 312.390534 119.277941 
L 313.610429 119.525304 
L 314.220376 119.832913 
L 314.830323 119.954635 
L 315.44027 119.707891 
L 316.660165 120.316273 
L 317.270112 120.070442 
L 317.880059 120.007953 
L 318.490006 120.309232 
L 319.099953 120.065181 
L 320.319848 119.941432 
L 320.929795 120.06001 
L 321.539742 119.998434 
L 322.149689 119.57887 
L 322.759636 119.518725 
L 323.369583 119.280566 
L 324.589478 119.162539 
L 325.199425 119.458039 
L 326.419319 118.987556 
L 327.639214 119.57388 
L 328.249161 119.515007 
L 328.859108 119.630995 
L 329.469055 119.398074 
L 330.079002 119.340001 
L 330.688949 119.108815 
L 331.298897 119.397668 
L 331.908844 119.512608 
L 332.518791 119.282605 
L 333.128738 119.225456 
L 333.738685 119.511436 
L 334.95858 119.055576 
L 335.568527 119.340001 
L 336.178474 119.453262 
L 337.398368 120.016515 
L 338.008315 119.790004 
L 338.618263 119.732878 
L 339.22821 119.508 
L 339.838157 119.451753 
L 340.448104 119.730276 
L 342.277946 119.561544 
L 342.887893 119.837375 
L 344.107787 120.05529 
L 345.327681 119.942615 
L 346.547576 120.485455 
L 347.157523 120.591844 
L 348.377417 120.478065 
L 350.207259 120.793853 
L 350.817206 120.73702 
L 351.427153 120.84128 
L 352.0371 121.105608 
L 353.866942 121.413421 
L 354.476889 121.196846 
L 355.696783 121.400387 
L 356.306731 121.185197 
L 356.916678 120.813071 
L 357.526625 120.915 
L 358.136572 120.859338 
L 359.966414 120.225125 
L 360.576361 119.703712 
L 361.186308 119.806677 
L 361.796255 119.598731 
L 362.406202 119.546561 
L 364.845991 118.725368 
L 365.455938 118.828851 
L 366.065885 119.084944 
L 366.675832 119.187278 
L 367.28578 119.136776 
L 367.895727 118.934372 
L 368.505674 118.88458 
L 369.115621 118.986497 
L 369.725568 118.936806 
L 369.725568 118.936806 
" clip-path="url(#p9e6ea79d53)" style="fill: none; stroke: #2ca02c; stroke-width: 1.5; stroke-linecap: square"/>
   </g>
   <g id="line2d_17">
    <path d="M 65.361932 18.54 
L 65.971879 56.340008 
L 66.581826 18.54 
L 67.191773 56.340008 
L 67.80172 79.020008 
L 68.411668 81.540005 
L 69.021615 94.140004 
L 69.631562 113.040008 
L 70.241509 102.540003 
L 71.461403 101.012735 
L 72.071351 113.040008 
L 72.681298 99.955388 
L 73.901192 109.26 
L 74.511139 108.315001 
L 75.121086 116.375296 
L 75.731034 119.340001 
L 76.340981 118.013684 
L 76.950928 109.26 
L 77.560875 115.740002 
L 78.170822 114.758188 
L 78.780769 110.574793 
L 79.390717 103.590006 
L 80.000664 109.26 
L 80.610611 105.770772 
L 81.220558 110.940002 
L 81.830505 113.040008 
L 83.660347 111.210977 
L 84.880241 114.758188 
L 85.490188 114.151766 
L 86.100135 115.740002 
L 86.710083 113.040008 
L 87.32003 116.615685 
L 87.929977 112.045272 
L 88.539924 111.586156 
L 89.149871 114.930006 
L 89.759819 114.422933 
L 90.979713 120.512097 
L 91.58966 118.194548 
L 92.199607 117.66001 
L 92.809554 120.435662 
L 93.419502 118.267659 
L 94.639396 117.28286 
L 95.249343 119.84401 
L 95.85929 120.822354 
L 96.469237 120.309232 
L 97.079185 121.241896 
L 98.299079 125.754552 
L 100.12892 128.029664 
L 100.738868 124.892544 
L 101.348815 123.120009 
L 102.568709 122.185171 
L 103.178656 124.140001 
L 103.788603 123.671253 
L 104.398551 124.380008 
L 105.008498 123.921826 
L 105.618445 125.734038 
L 106.228392 126.381183 
L 106.838339 125.913921 
L 108.058234 122.889296 
L 108.668181 122.490009 
L 109.278128 120.030416 
L 109.888075 120.702165 
L 111.107969 120.003166 
L 112.937811 121.891902 
L 113.547758 121.54501 
L 114.157705 123.073337 
L 114.767652 123.642447 
L 115.3776 125.108679 
L 115.987547 125.640006 
L 116.597494 127.048245 
L 117.207441 126.665586 
L 117.817388 128.029664 
L 118.427335 125.92637 
L 119.037283 126.418651 
L 119.64723 127.74 
L 120.257177 128.201539 
L 120.867124 129.474786 
L 121.477071 129.094842 
L 122.696966 131.54211 
L 123.306913 129.577502 
L 123.91686 129.991546 
L 124.526807 128.854294 
L 125.136754 128.50364 
L 125.746701 129.672007 
L 126.356649 127.823172 
L 126.966596 127.492942 
L 127.576543 127.90311 
L 128.18649 126.851542 
L 128.796437 127.980007 
L 129.406384 126.23434 
L 130.016332 125.227855 
L 130.626279 125.640006 
L 131.846173 127.816368 
L 132.45612 128.194059 
L 133.066067 129.240006 
L 133.676015 128.929388 
L 134.285962 129.287376 
L 134.895909 128.981738 
L 135.505856 127.377934 
L 136.115803 128.386154 
L 136.72575 128.095938 
L 137.945645 126.270006 
L 138.555592 126.004472 
L 139.165539 126.362955 
L 139.775486 127.330248 
L 140.385433 127.672262 
L 140.995381 126.194404 
L 141.605328 125.340001 
L 142.215275 125.094339 
L 142.825222 125.443134 
L 143.435169 124.028373 
L 144.045116 124.961544 
L 144.655064 122.994964 
L 145.265011 123.921826 
L 145.874958 124.266318 
L 146.484905 125.16985 
L 147.094852 124.380008 
L 147.704799 124.157653 
L 148.314747 124.490373 
L 148.924694 123.722611 
L 149.534641 121.878136 
L 150.144588 121.680002 
L 150.754535 120.412343 
L 151.97443 118.987556 
L 152.584377 119.340001 
L 153.194324 118.644832 
L 153.804271 116.923565 
L 154.414218 115.740002 
L 155.024165 115.59406 
L 155.634113 116.464832 
L 156.854007 117.170467 
L 157.463954 116.024213 
L 158.073901 116.375296 
L 158.683848 117.212734 
L 159.293796 116.576133 
L 159.903743 116.432309 
L 160.51369 116.771856 
L 161.123637 117.585569 
L 161.733584 117.438118 
L 162.343531 117.765003 
L 162.953479 118.557391 
L 163.563426 118.406673 
L 164.173373 117.330186 
L 164.78332 116.727809 
L 165.393267 117.049094 
L 166.003214 116.911095 
L 166.613162 116.322045 
L 167.223109 117.09001 
L 167.833056 116.506874 
L 168.443003 116.375296 
L 169.05295 115.803166 
L 170.272845 115.552716 
L 170.882792 115.864145 
L 171.492739 115.308001 
L 172.712633 115.923051 
L 173.32258 115.800676 
L 173.932528 116.102011 
L 174.542475 115.560005 
L 175.152422 115.441663 
L 176.372316 116.035084 
L 176.982263 115.094355 
L 177.592211 114.981082 
L 179.422052 115.854896 
L 180.031999 116.540005 
L 180.641946 116.024213 
L 181.251894 116.701256 
L 181.861841 116.977504 
L 182.471788 116.859173 
L 183.081735 117.521448 
L 183.691682 116.626162 
L 184.301629 116.511437 
L 184.911577 116.781634 
L 185.521524 117.43092 
L 186.131471 117.693772 
L 186.741418 117.19801 
L 187.351365 117.45941 
L 187.961312 116.969708 
L 188.57126 117.229666 
L 189.181207 117.116472 
L 191.620995 118.128466 
L 192.230943 118.737129 
L 192.84089 117.900006 
L 193.450837 118.14569 
L 194.060784 118.032463 
L 194.670731 118.630142 
L 195.280678 118.51571 
L 195.890626 118.753959 
L 196.500573 118.29001 
L 197.11052 118.17872 
L 197.720467 117.721654 
L 198.330414 117.613981 
L 200.160256 118.318387 
L 200.770203 118.209959 
L 201.38015 117.765003 
L 201.990097 117.66001 
L 203.209992 118.784939 
L 203.819939 118.676848 
L 204.429886 118.899833 
L 205.039833 119.449567 
L 205.64978 119.66728 
L 206.259727 119.231381 
L 206.869675 119.448159 
L 207.479622 119.340001 
L 208.089569 119.876172 
L 208.699516 119.767124 
L 209.309463 120.296964 
L 209.91941 119.869413 
L 210.529358 119.761762 
L 211.139305 120.285 
L 211.749252 120.490209 
L 212.359199 119.756535 
L 212.969146 119.651114 
L 214.189041 120.677145 
L 214.798988 120.569268 
L 215.408935 120.768348 
L 216.628829 121.768919 
L 217.238776 121.9608 
L 217.848724 121.849961 
L 218.458671 121.440007 
L 219.068618 121.929731 
L 219.678565 122.117962 
L 221.508407 123.556347 
L 222.728301 123.912983 
L 223.948195 123.105522 
L 224.558142 123.572062 
L 226.387984 123.238869 
L 226.997931 123.413695 
L 227.607878 123.30405 
L 228.217825 123.477321 
L 228.827773 123.368262 
L 229.43772 123.819999 
L 231.267561 123.493847 
L 231.877508 123.662635 
L 232.487456 123.555277 
L 233.097403 123.722611 
L 233.70735 123.615816 
L 234.317297 123.781731 
L 234.927244 123.13355 
L 235.537191 122.760004 
L 236.147139 122.927192 
L 237.367033 122.723753 
L 237.97698 122.35691 
L 238.586927 122.523163 
L 239.196874 122.159588 
L 240.416769 122.490009 
L 241.026716 122.391911 
L 242.24661 122.71732 
L 242.856557 122.619459 
L 243.466505 123.038302 
L 244.686399 123.354924 
L 245.296346 122.745416 
L 246.51624 123.06081 
L 247.126188 122.964086 
L 248.956029 123.428745 
L 249.565976 123.332089 
L 250.175923 122.987371 
L 250.785871 122.39706 
L 251.395818 122.551766 
L 252.615712 123.349099 
L 253.225659 123.254573 
L 253.835606 122.916783 
L 255.055501 123.216924 
L 255.665448 122.882492 
L 256.275395 123.031723 
L 256.885342 123.420003 
L 257.495289 122.609624 
L 258.105237 122.758303 
L 259.935078 122.490009 
L 260.545025 121.930655 
L 261.76492 122.226695 
L 262.374867 122.140008 
L 262.984814 121.356002 
L 263.594761 121.736329 
L 264.204708 121.883126 
L 265.424603 121.254896 
L 266.03455 121.401829 
L 266.644497 121.319457 
L 267.864391 121.61027 
L 269.084286 122.348957 
L 269.694233 122.490009 
L 270.30418 122.40588 
L 272.134021 122.823529 
L 272.743969 123.182824 
L 273.353916 123.097895 
L 273.963863 123.233878 
L 275.793704 122.981626 
L 276.403652 123.11637 
L 277.013599 122.815869 
L 279.453387 122.490009 
L 280.063335 122.838016 
L 280.673282 122.543396 
L 282.503123 122.304707 
L 283.11307 122.648388 
L 283.723018 122.568979 
L 284.332965 122.910001 
L 286.162806 122.047442 
L 286.772753 121.97077 
L 287.992648 122.644918 
L 288.602595 122.361259 
L 289.212542 122.695443 
L 289.822489 122.41318 
L 290.432436 122.541086 
L 291.042384 122.872083 
L 291.652331 122.591622 
L 292.262278 122.718019 
L 292.872225 123.045883 
L 293.482172 123.17041 
L 294.092119 122.892135 
L 294.702067 123.216924 
L 295.312014 123.140005 
L 295.921961 122.864017 
L 296.531908 122.788427 
L 297.141855 122.911657 
L 297.751802 123.232155 
L 298.36175 122.761412 
L 298.971697 122.490009 
L 302.021433 124.069052 
L 302.63138 123.798471 
L 303.241327 123.722611 
L 303.851274 123.454295 
L 304.461221 123.572062 
L 305.071168 123.881125 
L 306.291063 124.112728 
L 306.90101 124.037239 
L 307.510957 123.772167 
L 308.120904 123.887377 
L 308.730851 123.435008 
L 310.560693 122.654144 
L 312.390534 122.44345 
L 313.000482 122.002414 
L 313.610429 122.119416 
L 314.220376 121.866161 
L 314.830323 122.167327 
L 315.44027 122.099127 
L 317.270112 121.348702 
L 317.880059 120.918796 
L 318.490006 121.036158 
L 319.099953 120.790361 
L 319.7099 120.907474 
L 320.319848 120.843589 
L 320.929795 120.240007 
L 321.539742 120.357582 
L 322.149689 120.653747 
L 323.369583 120.885293 
L 323.979531 120.644475 
L 325.199425 120.874433 
L 325.809372 120.811967 
L 326.419319 120.926017 
L 327.029266 120.863731 
L 328.249161 121.090006 
L 328.859108 121.376955 
L 329.469055 120.965806 
L 331.298897 120.262661 
L 332.518791 120.488068 
L 333.128738 120.256364 
L 333.738685 119.68286 
L 334.348632 119.79611 
L 334.95858 120.07951 
L 335.568527 120.021089 
L 337.398368 119.340001 
L 338.008315 119.283754 
L 338.618263 119.059383 
L 339.22821 119.172002 
L 339.838157 118.948871 
L 341.058051 118.839339 
L 342.887893 119.17421 
L 343.49784 119.119438 
L 344.107787 118.569704 
L 344.717734 118.681185 
L 345.327681 118.956531 
L 345.937629 118.902694 
L 347.157523 119.1223 
L 348.377417 119.665162 
L 348.987365 119.448159 
L 349.597312 119.717737 
L 351.427153 119.071921 
L 352.0371 118.537463 
L 352.647048 118.485767 
L 353.256995 118.753959 
L 353.866942 118.702026 
L 354.476889 118.968641 
L 355.086836 118.757654 
L 356.306731 118.970962 
L 356.916678 118.91913 
L 357.526625 119.025002 
L 358.746519 118.921744 
L 359.966414 119.13174 
L 360.576361 119.080213 
L 361.186308 118.717786 
L 362.406202 118.926892 
L 363.016149 119.185408 
L 364.845991 119.032684 
L 365.455938 118.828851 
L 366.675832 118.729097 
L 368.505674 119.036391 
L 369.115621 119.289499 
L 369.725568 119.088008 
L 369.725568 119.088008 
" clip-path="url(#p9e6ea79d53)" style="fill: none; stroke: #d62728; stroke-width: 1.5; stroke-linecap: square"/>
   </g>
   <g id="line2d_18">
    <path d="M 65.361932 94.140004 
L 65.971879 169.740002 
L 66.581826 194.939999 
L 67.191773 131.94 
L 67.80172 109.26 
L 68.411668 106.740003 
L 69.021615 126.540001 
L 69.631562 113.040008 
L 70.241509 119.340001 
L 71.461403 142.249092 
L 72.071351 150.840004 
L 72.681298 146.47846 
L 73.291245 153.540003 
L 74.511139 136.665007 
L 75.121086 129.716471 
L 76.340981 110.05579 
L 76.950928 109.26 
L 78.170822 114.758188 
L 78.780769 113.861742 
L 80.000664 118.332007 
L 81.830505 115.740002 
L 82.440452 112.388277 
L 83.0504 101.700008 
L 83.660347 99.01743 
L 84.880241 107.885456 
L 85.490188 107.481179 
L 86.100135 104.940003 
L 86.710083 106.740003 
L 87.32003 106.399464 
L 87.929977 104.087379 
L 88.539924 105.770772 
L 89.149871 101.700008 
L 90.369766 104.940003 
L 90.979713 104.688843 
L 91.58966 107.885456 
L 92.809554 110.574793 
L 93.419502 110.225108 
L 94.639396 112.654296 
L 95.249343 112.284006 
L 95.85929 110.445884 
L 97.079185 112.683405 
L 97.689132 110.940002 
L 98.299079 112.009099 
L 98.909026 111.69001 
L 99.518973 108.729484 
L 100.738868 110.797632 
L 101.348815 113.040008 
L 102.568709 112.430331 
L 103.178656 113.340002 
L 103.788603 111.858753 
L 104.398551 111.586156 
L 105.008498 112.467281 
L 106.228392 109.704708 
L 107.448286 109.26 
L 108.668181 110.940002 
L 109.278128 109.674247 
L 109.888075 110.485955 
L 110.498022 112.284006 
L 112.937811 115.193174 
L 113.547758 114.930006 
L 114.157705 113.740009 
L 114.767652 113.500983 
L 115.3776 114.178555 
L 115.987547 112.140002 
L 116.597494 111.928237 
L 117.207441 112.60047 
L 117.817388 110.650349 
L 118.427335 111.321827 
L 119.037283 110.279327 
L 120.257177 109.924618 
L 120.867124 108.109567 
L 122.696966 107.66843 
L 123.306913 109.1025 
L 123.91686 109.727633 
L 124.526807 111.111437 
L 125.136754 111.703641 
L 125.746701 111.528005 
L 126.356649 112.104359 
L 126.966596 111.187061 
L 129.406384 113.39661 
L 130.016332 113.216636 
L 130.626279 113.740009 
L 132.45612 113.210271 
L 133.066067 112.365003 
L 133.676015 113.541774 
L 134.285962 114.034743 
L 134.895909 113.861742 
L 135.505856 114.995175 
L 136.72575 113.360347 
L 137.945645 114.300006 
L 138.555592 113.508598 
L 139.165539 114.589186 
L 139.775486 114.422933 
L 140.385433 115.478715 
L 140.995381 115.9128 
L 142.215275 115.56993 
L 142.825222 115.993132 
L 143.435169 116.995821 
L 144.045116 116.238468 
L 144.655064 116.646879 
L 145.265011 115.903641 
L 147.094852 115.42 
L 147.704799 114.707652 
L 148.314747 115.109349 
L 148.924694 114.957392 
L 150.144588 115.740002 
L 150.754535 115.050645 
L 151.364482 115.435783 
L 152.584377 115.140002 
L 155.024165 116.615685 
L 155.634113 115.957455 
L 156.854007 115.668478 
L 157.463954 116.024213 
L 158.073901 115.38706 
L 158.683848 116.230909 
L 160.51369 115.808799 
L 161.123637 116.150137 
L 161.733584 116.011709 
L 162.343531 115.402505 
L 162.953479 115.740002 
L 164.173373 114.547369 
L 164.78332 114.422933 
L 165.393267 113.841825 
L 166.003214 114.178555 
L 167.223109 113.940002 
L 167.833056 114.270187 
L 168.443003 114.151766 
L 169.05295 113.592637 
L 169.662897 113.479545 
L 170.272845 113.80474 
L 170.882792 112.388277 
L 171.492739 111.852005 
L 172.102686 112.610462 
L 172.712633 112.506112 
L 173.32258 112.827646 
L 174.542475 111.780009 
L 175.152422 112.100224 
L 175.762369 112.83231 
L 176.372316 112.730167 
L 176.982263 113.040008 
L 177.592211 113.755139 
L 178.202158 113.649684 
L 178.812105 114.353911 
L 179.422052 114.64852 
L 180.641946 113.636842 
L 181.251894 113.534767 
L 181.861841 113.040008 
L 183.691682 112.749239 
L 184.911577 113.327824 
L 185.521524 112.467281 
L 186.131471 112.375176 
L 186.741418 112.662001 
L 189.181207 112.298831 
L 189.791154 112.579032 
L 190.401101 113.223496 
L 191.011048 112.400872 
L 191.620995 112.313082 
L 192.230943 111.864408 
L 192.84089 112.500006 
L 193.450837 111.696398 
L 194.060784 111.256984 
L 194.670731 111.886488 
L 195.280678 111.450285 
L 195.890626 111.369772 
L 196.500573 111.990005 
L 197.11052 111.559356 
L 197.720467 111.479451 
L 198.330414 111.745481 
L 198.940361 112.352735 
L 199.550309 112.6124 
L 200.160256 111.848119 
L 200.770203 112.107716 
L 201.38015 112.027507 
L 203.209992 109.79287 
L 203.819939 109.392637 
L 205.64978 109.194549 
L 206.259727 109.78138 
L 206.869675 109.389787 
L 207.479622 109.324618 
L 208.089569 109.581703 
L 208.699516 109.516274 
L 209.309463 109.132409 
L 209.91941 109.704708 
L 211.139305 109.575011 
L 212.359199 110.072238 
L 212.969146 110.628889 
L 213.579093 109.941639 
L 215.408935 109.749724 
L 216.018882 109.381935 
L 217.238776 109.86481 
L 217.848724 109.802153 
L 218.458671 110.040008 
L 219.068618 109.977159 
L 219.678565 110.510085 
L 220.288512 109.26 
L 220.898459 109.200947 
L 221.508407 109.730663 
L 222.118354 109.963257 
L 222.728301 109.902166 
L 223.338248 110.132315 
L 223.948195 110.650349 
L 224.558142 110.87588 
L 225.778037 110.749101 
L 226.387984 110.401139 
L 227.607878 110.279327 
L 228.217825 110.501197 
L 229.43772 109.26 
L 231.267561 110.755387 
L 232.487456 110.634555 
L 233.097403 110.848697 
L 233.70735 110.788383 
L 234.317297 111.00044 
L 234.927244 110.669038 
L 235.537191 110.610008 
L 236.147139 110.820432 
L 236.757086 111.297449 
L 237.367033 111.23682 
L 237.97698 111.709015 
L 238.586927 111.912635 
L 239.196874 112.379164 
L 239.806822 112.315616 
L 240.416769 111.990005 
L 241.636663 111.866898 
L 242.24661 111.286398 
L 244.686399 112.078989 
L 245.296346 112.529195 
L 245.906293 112.212731 
L 246.51624 112.405772 
L 247.126188 112.850368 
L 248.346082 112.223726 
L 248.956029 112.414176 
L 250.175923 111.79658 
L 250.785871 111.738699 
L 251.395818 111.928237 
L 252.005765 111.8703 
L 252.615712 110.830909 
L 253.225659 110.776903 
L 254.445554 111.156081 
L 255.055501 111.101546 
L 255.665448 111.288888 
L 256.275395 111.234274 
L 256.885342 110.940002 
L 257.495289 111.365323 
L 258.105237 110.834007 
L 258.715184 110.54378 
L 259.935078 110.441254 
L 260.545025 110.861506 
L 261.154972 110.809573 
L 261.76492 110.992014 
L 262.374867 110.940002 
L 262.984814 111.120934 
L 263.594761 110.60504 
L 264.204708 111.017068 
L 266.03455 110.863646 
L 266.644497 111.269917 
L 267.254444 110.762901 
L 267.864391 111.167031 
L 268.474338 111.342398 
L 269.084286 111.065373 
L 269.694233 111.240008 
L 271.524074 110.419648 
L 272.134021 110.816478 
L 272.743969 110.324174 
L 273.353916 110.497896 
L 273.963863 110.229805 
L 274.57381 110.183032 
L 275.183757 110.355661 
L 276.403652 110.262193 
L 277.013599 110.43311 
L 277.623546 110.386426 
L 278.233493 110.556003 
L 278.84344 110.078467 
L 279.453387 110.247965 
L 281.283229 109.472959 
L 281.893176 109.642253 
L 282.503123 110.022355 
L 283.723018 110.355053 
L 284.332965 110.730006 
L 284.942912 110.684055 
L 285.552859 110.847187 
L 286.772753 110.755387 
L 287.382701 110.088494 
L 288.602595 110.825569 
L 289.212542 110.780227 
L 289.822489 111.144884 
L 291.042384 111.460762 
L 291.652331 111.414203 
L 292.262278 111.77325 
L 292.872225 111.726104 
L 294.702067 112.187755 
L 295.312014 111.940009 
L 295.921961 112.291982 
L 296.531908 112.443162 
L 297.141855 112.1967 
L 297.751802 112.347339 
L 298.36175 112.2998 
L 298.971697 112.44938 
L 299.581644 112.205464 
L 300.191591 112.550373 
L 301.411485 112.455475 
L 302.021433 112.0197 
L 302.63138 111.198461 
L 303.851274 111.497149 
L 304.461221 111.452978 
L 305.071168 111.02528 
L 305.681116 111.365323 
L 306.291063 111.512729 
L 306.90101 111.468974 
L 307.510957 111.615378 
L 308.730851 111.528005 
L 309.340799 111.107584 
L 309.950746 111.441498 
L 310.560693 111.210977 
L 311.780587 111.50001 
L 312.390534 111.829666 
L 313.610429 112.11354 
L 314.220376 111.699913 
L 315.44027 111.614454 
L 317.270112 112.035663 
L 317.880059 111.992539 
L 318.490006 112.313082 
L 319.099953 112.269496 
L 320.929795 112.680003 
L 321.539742 112.456399 
L 322.149689 112.592134 
L 323.369583 112.505098 
L 323.979531 112.639775 
L 324.589478 112.951271 
L 325.199425 112.730167 
L 325.809372 112.68674 
L 326.419319 112.467281 
L 327.029266 112.776287 
L 327.639214 112.73304 
L 328.249161 113.040008 
L 328.859108 112.821765 
L 329.469055 112.952904 
L 330.688949 112.866612 
L 331.298897 112.650758 
L 331.908844 112.608502 
L 333.128738 113.211826 
L 334.348632 113.467604 
L 335.568527 114.061622 
L 336.178474 114.186745 
L 336.788421 114.141797 
L 338.008315 114.390005 
L 338.618263 114.34491 
L 339.838157 113.920051 
L 341.058051 114.16649 
L 341.667998 114.455422 
L 342.277946 114.576929 
L 342.887893 114.366325 
L 343.49784 114.487494 
L 344.107787 114.773193 
L 344.717734 114.892943 
L 345.327681 114.847837 
L 345.937629 114.474933 
L 346.547576 114.594548 
L 347.157523 114.876935 
L 347.76747 114.343456 
L 348.377417 114.137426 
L 348.987365 114.094516 
L 350.207259 114.332315 
L 350.817206 114.128064 
L 351.427153 114.246384 
L 352.647048 114.801874 
L 353.256995 114.918019 
L 353.866942 114.714692 
L 354.476889 114.671377 
L 355.086836 114.469414 
L 355.696783 114.585288 
L 358.136572 115.672647 
L 358.746519 115.784815 
L 359.356466 115.740002 
L 359.966414 115.851573 
L 361.186308 115.762228 
L 361.796255 116.028303 
L 362.406202 115.673615 
L 363.626097 115.894291 
L 364.236044 116.157932 
L 364.845991 116.113175 
L 365.455938 116.375296 
L 366.065885 116.48333 
L 367.895727 116.348451 
L 369.115621 115.956441 
L 369.725568 116.215205 
L 369.725568 116.215205 
" clip-path="url(#p9e6ea79d53)" style="fill: none; stroke: #9467bd; stroke-width: 1.5; stroke-linecap: square"/>
   </g>
   <g id="line2d_19">
    <path d="M 65.361932 245.34 
L 65.971879 169.740002 
L 66.581826 169.740002 
L 67.191773 150.840004 
L 67.80172 154.620006 
L 68.411668 157.140003 
L 69.021615 158.940003 
L 69.631562 141.390002 
L 70.241509 136.14 
L 70.851456 139.500004 
L 71.461403 135.376371 
L 72.071351 138.240005 
L 72.681298 146.47846 
L 73.901192 149.580005 
L 74.511139 150.840004 
L 75.121086 143.057646 
L 75.731034 140.339999 
L 76.340981 145.866316 
L 76.950928 143.28 
L 77.560875 144.539999 
L 78.170822 138.812732 
L 78.780769 136.87044 
L 80.000664 139.500004 
L 80.610611 143.570768 
L 81.830505 145.440004 
L 82.440452 143.67104 
L 83.0504 147.060008 
L 83.660347 145.352912 
L 84.270294 146.115008 
L 84.880241 144.539999 
L 85.490188 138.610588 
L 86.710083 136.14 
L 87.929977 137.908423 
L 88.539924 134.847692 
L 89.149871 133.830009 
L 90.369766 135.54 
L 90.979713 138.093489 
L 91.58966 135.376371 
L 92.199607 134.460009 
L 93.419502 129.527237 
L 94.029449 128.790003 
L 94.639396 129.625718 
L 95.249343 131.94 
L 95.85929 132.681176 
L 96.469237 130.48616 
L 97.079185 129.800386 
L 98.299079 131.252728 
L 98.909026 129.240006 
L 99.518973 129.950529 
L 100.738868 126.173902 
L 102.568709 131.94 
L 103.788603 133.121254 
L 105.008498 129.649093 
L 105.618445 130.247471 
L 106.228392 128.604712 
L 106.838339 129.20087 
L 107.448286 130.860009 
L 108.058234 130.34282 
L 108.668181 127.74 
L 109.888075 128.875135 
L 110.498022 128.412008 
L 111.107969 126.966324 
L 111.717917 128.50364 
L 112.327864 127.093847 
L 112.937811 126.676716 
L 113.547758 127.215005 
L 114.157705 128.67334 
L 114.767652 129.174149 
L 115.3776 128.75205 
L 115.987547 130.14 
L 116.597494 130.605887 
L 117.817388 128.029664 
L 118.427335 127.64455 
L 119.037283 128.117534 
L 119.64723 126.900005 
L 120.257177 124.047693 
L 120.867124 125.366091 
L 121.477071 125.030329 
L 122.087018 125.505961 
L 122.696966 126.767368 
L 123.306913 126.427505 
L 123.91686 125.315262 
L 124.526807 124.997153 
L 125.746701 127.404002 
L 126.356649 125.57763 
L 127.576543 126.435155 
L 128.18649 127.578468 
L 128.796437 125.820003 
L 129.406384 126.947556 
L 130.016332 126.640937 
L 130.626279 127.04001 
L 131.846173 126.441824 
L 133.066067 127.215005 
L 133.676015 126.253277 
L 134.285962 125.971588 
L 134.895909 124.380008 
L 136.72575 127.455259 
L 137.335698 127.175295 
L 137.945645 127.530004 
L 138.555592 128.50364 
L 139.165539 127.602305 
L 142.215275 126.284887 
L 143.435169 126.958607 
L 144.045116 126.706163 
L 144.655064 127.034659 
L 145.265011 127.930913 
L 145.874958 127.108424 
L 146.484905 127.426567 
L 147.094852 126.620007 
L 147.704799 126.937068 
L 148.924694 126.461741 
L 149.534641 126.773102 
L 150.144588 125.999999 
L 150.754535 126.310223 
L 151.364482 126.083667 
L 152.584377 124.590004 
L 153.194324 123.337248 
L 153.804271 123.655076 
L 154.414218 124.482859 
L 155.024165 124.277843 
L 155.634113 123.568198 
L 156.854007 124.179745 
L 157.463954 123.982107 
L 158.073901 124.775295 
L 159.293796 124.380008 
L 159.903743 124.670776 
L 160.51369 124.476314 
L 161.123637 123.805828 
L 162.343531 123.435008 
L 163.563426 124.006676 
L 164.173373 123.823435 
L 164.78332 124.564398 
L 165.393267 123.921826 
L 166.003214 123.742415 
L 166.613162 123.112461 
L 167.223109 122.940001 
L 167.833056 123.216924 
L 168.443003 123.935299 
L 169.662897 124.46791 
L 170.272845 124.292611 
L 170.882792 124.553797 
L 171.492739 125.244009 
L 172.102686 124.637735 
L 172.712633 124.892544 
L 173.32258 124.295056 
L 175.762369 125.293847 
L 176.372316 125.123606 
L 176.982263 125.366091 
L 177.592211 123.562712 
L 178.202158 123.810976 
L 178.812105 123.652304 
L 179.422052 124.299585 
L 180.031999 124.540008 
L 180.641946 125.175798 
L 182.471788 124.693374 
L 183.081735 124.925574 
L 184.301629 124.61143 
L 184.911577 124.84051 
L 185.521524 124.685454 
L 186.131471 124.152066 
L 186.741418 124.758003 
L 187.351365 124.981799 
L 189.181207 126.751765 
L 189.791154 126.961468 
L 190.401101 126.068166 
L 191.011048 126.644351 
L 191.620995 125.761153 
L 192.230943 125.971588 
L 192.84089 125.820003 
L 193.450837 126.028151 
L 194.060784 125.877737 
L 194.670731 125.373808 
L 195.280678 125.581123 
L 195.890626 125.434888 
L 196.500573 125.640006 
L 197.11052 125.494842 
L 197.720467 125.697808 
L 198.330414 125.553703 
L 198.940361 125.06728 
L 199.550309 124.243168 
L 200.160256 124.107568 
L 200.770203 123.634179 
L 201.38015 124.177503 
L 203.209992 124.779654 
L 203.819939 125.308424 
L 205.039833 125.037393 
L 206.259727 125.422767 
L 206.869675 125.937432 
L 207.479622 125.478462 
L 208.089569 125.345115 
L 208.699516 124.892544 
L 210.529358 125.455481 
L 211.139305 125.325007 
L 211.749252 124.568216 
L 212.359199 124.754882 
L 214.189041 124.380008 
L 214.798988 124.871714 
L 215.408935 124.747289 
L 216.018882 124.31904 
L 216.628829 124.805069 
L 217.238776 124.682401 
L 217.848724 125.163113 
L 218.458671 124.440006 
L 219.678565 123.606151 
L 220.288512 123.490591 
L 220.898459 123.080625 
L 221.508407 123.262188 
L 222.728301 123.037299 
L 223.338248 123.216924 
L 224.558142 122.994964 
L 225.16809 123.172708 
L 226.387984 122.953587 
L 226.997931 122.276848 
L 227.607878 121.88832 
L 228.217825 120.93851 
L 228.827773 120.557845 
L 229.43772 120.740005 
L 230.047667 120.641851 
L 230.657614 120.822354 
L 231.267561 120.724616 
L 231.877508 120.903509 
L 232.487456 120.531282 
L 233.097403 120.709566 
L 234.317297 120.518417 
L 235.537191 120.870006 
L 236.147139 120.505845 
L 236.757086 119.876172 
L 237.367033 119.518094 
L 238.586927 119.870528 
L 239.196874 119.516224 
L 239.806822 119.427814 
L 240.416769 119.865008 
L 241.636663 119.687591 
L 242.24661 120.119389 
L 242.856557 120.289315 
L 243.466505 120.200071 
L 244.076452 120.368577 
L 245.296346 121.212978 
L 246.51624 120.523903 
L 247.126188 120.6885 
L 247.736135 120.6 
L 248.346082 120.763256 
L 248.956029 120.675106 
L 249.565976 120.837033 
L 250.175923 120.74922 
L 250.785871 121.15771 
L 251.395818 121.069413 
L 252.005765 120.489195 
L 252.615712 120.894553 
L 253.225659 120.807968 
L 253.835606 120.965806 
L 254.445554 120.879559 
L 255.055501 121.278463 
L 255.665448 121.433293 
L 256.275395 121.34637 
L 256.885342 121.740001 
L 258.105237 122.042845 
L 259.325131 121.867907 
L 259.935078 122.01751 
L 260.545025 121.930655 
L 261.154972 122.079131 
L 261.76492 121.290471 
L 262.984814 122.053852 
L 263.594761 122.200131 
L 264.204708 122.114312 
L 264.814655 122.490009 
L 266.03455 121.86001 
L 266.644497 121.776264 
L 267.254444 121.92073 
L 267.864391 121.156223 
L 269.084286 121.897614 
L 269.694233 121.590004 
L 270.30418 121.957218 
L 271.524074 121.793106 
L 272.134021 121.489416 
L 272.743969 121.630919 
L 273.963863 121.470614 
L 275.183757 121.750444 
L 276.403652 120.719829 
L 277.013599 120.86069 
L 277.623546 120.567511 
L 278.233493 120.708 
L 278.84344 121.063082 
L 279.453387 120.771818 
L 280.063335 121.124703 
L 280.673282 120.834915 
L 281.283229 120.972678 
L 281.893176 120.897313 
L 282.503123 121.034119 
L 283.11307 120.747823 
L 283.723018 120.884291 
L 284.332965 120.6 
L 284.942912 120.94554 
L 285.552859 120.871493 
L 286.162806 120.589591 
L 287.382701 120.444663 
L 287.992648 120.16623 
L 288.602595 120.301312 
L 289.212542 120.230217 
L 289.822489 119.954635 
L 291.652331 120.356129 
L 292.262278 120.083172 
L 292.872225 120.0138 
L 293.482172 119.743208 
L 294.092119 119.675109 
L 294.702067 120.008438 
L 295.921961 119.871936 
L 297.141855 120.133708 
L 297.751802 119.274032 
L 299.581644 119.66728 
L 300.191591 119.013579 
L 300.801538 118.94931 
L 301.411485 119.080213 
L 302.021433 119.016102 
L 302.63138 119.14616 
L 303.241327 119.46891 
L 303.851274 119.404292 
L 304.461221 119.724733 
L 305.681116 119.977976 
L 306.291063 119.530914 
L 306.90101 119.847817 
L 307.510957 119.593267 
L 308.730851 119.466003 
L 309.340799 119.591375 
L 309.950746 119.904189 
L 310.560693 119.840258 
L 311.17064 120.150898 
L 311.780587 120.086675 
L 313.000482 120.702165 
L 313.610429 120.637063 
L 314.220376 120.757117 
L 314.830323 120.507805 
L 315.44027 120.811539 
L 316.050217 120.746798 
L 316.660165 120.865432 
L 317.270112 120.800871 
L 317.880059 120.918796 
L 318.490006 120.490963 
L 319.099953 120.790361 
L 319.7099 120.907474 
L 320.319848 120.843589 
L 320.929795 121.140001 
L 321.539742 121.255448 
L 322.149689 121.19119 
L 322.759636 121.305961 
L 323.369583 121.063589 
L 325.199425 120.874433 
L 325.809372 120.988607 
L 326.419319 120.926017 
L 327.029266 121.039537 
L 327.639214 120.977128 
L 330.079002 121.42552 
L 331.298897 121.992636 
L 331.908844 122.10165 
L 332.518791 121.865744 
L 333.128738 121.459101 
L 333.738685 121.225719 
L 334.348632 121.164435 
L 334.95858 120.932776 
L 336.178474 120.812362 
L 336.788421 120.922063 
L 337.398368 120.862154 
L 338.618263 121.079867 
L 339.22821 121.356002 
L 340.448104 121.570098 
L 341.058051 121.843315 
L 341.667998 121.615779 
L 342.277946 121.555386 
L 342.887893 121.826845 
L 343.49784 121.931691 
L 345.937629 121.690546 
L 347.157523 121.244971 
L 347.76747 121.18656 
L 348.377417 120.965806 
L 348.987365 121.232714 
L 349.597312 121.174698 
L 350.817206 121.381799 
L 351.427153 121.162982 
L 352.0371 121.105608 
L 352.647048 120.728143 
L 353.256995 120.671929 
L 353.866942 120.775445 
L 354.476889 120.241899 
L 355.086836 120.345889 
L 355.696783 120.290948 
L 356.306731 120.394397 
L 356.916678 120.181754 
L 357.526625 120.1275 
L 358.136572 119.759137 
L 358.746519 119.862823 
L 359.356466 120.122611 
L 359.966414 119.912728 
L 360.576361 120.171345 
L 361.186308 120.273341 
L 361.796255 120.064437 
L 362.406202 120.321151 
L 363.016149 120.422211 
L 363.626097 120.677145 
L 364.236044 120.623105 
L 364.845991 120.722927 
L 365.455938 120.515668 
L 366.675832 120.409099 
L 367.28578 120.508548 
L 367.895727 120.303385 
L 368.505674 120.554466 
L 369.115621 120.350023 
L 369.725568 120.6 
L 369.725568 120.6 
" clip-path="url(#p9e6ea79d53)" style="fill: none; stroke: #8c564b; stroke-width: 1.5; stroke-linecap: square"/>
   </g>
   <g id="line2d_20">
    <path d="M 50.14375 119.088005 
L 384.94375 119.088005 
" clip-path="url(#p9e6ea79d53)" style="fill: none; stroke-dasharray: 5.55,2.4; stroke-dashoffset: 0; stroke: #000000; stroke-width: 1.5"/>
   </g>
   <g id="patch_3">
    <path d="M 50.14375 256.68 
L 50.14375 7.2 
" style="fill: none; stroke: #000000; stroke-width: 0.8; stroke-linejoin: miter; stroke-linecap: square"/>
   </g>
   <g id="patch_4">
    <path d="M 384.94375 256.68 
L 384.94375 7.2 
" style="fill: none; stroke: #000000; stroke-width: 0.8; stroke-linejoin: miter; stroke-linecap: square"/>
   </g>
   <g id="patch_5">
    <path d="M 50.14375 256.68 
L 384.94375 256.68 
" style="fill: none; stroke: #000000; stroke-width: 0.8; stroke-linejoin: miter; stroke-linecap: square"/>
   </g>
   <g id="patch_6">
    <path d="M 50.14375 7.2 
L 384.94375 7.2 
" style="fill: none; stroke: #000000; stroke-width: 0.8; stroke-linejoin: miter; stroke-linecap: square"/>
   </g>
   <g id="legend_1">
    <g id="patch_7">
     <path d="M 302.089063 103.26875 
L 377.94375 103.26875 
Q 379.94375 103.26875 379.94375 101.26875 
L 379.94375 14.2 
Q 379.94375 12.2 377.94375 12.2 
L 302.089063 12.2 
Q 300.089063 12.2 300.089063 14.2 
L 300.089063 101.26875 
Q 300.089063 103.26875 302.089063 103.26875 
z
" style="fill: #ffffff; opacity: 0.8; stroke: #cccccc; stroke-linejoin: miter"/>
    </g>
    <g id="line2d_21">
     <path d="M 304.089063 20.298437 
L 314.089063 20.298437 
L 324.089063 20.298437 
" style="fill: none; stroke: #1f77b4; stroke-width: 1.5; stroke-linecap: square"/>
    </g>
    <g id="text_16">
     <!-- P(die=1) -->
     <g transform="translate(332.089063 23.798437)scale(0.1 -0.1)">
      <defs>
       <path id="DejaVuSans-50" d="M 1259 4147 
L 1259 2394 
L 2053 2394 
Q 2494 2394 2734 2622 
Q 2975 2850 2975 3272 
Q 2975 3691 2734 3919 
Q 2494 4147 2053 4147 
L 1259 4147 
z
M 628 4666 
L 2053 4666 
Q 2838 4666 3239 4311 
Q 3641 3956 3641 3272 
Q 3641 2581 3239 2228 
Q 2838 1875 2053 1875 
L 1259 1875 
L 1259 0 
L 628 0 
L 628 4666 
z
" transform="scale(0.015625)"/>
       <path id="DejaVuSans-28" d="M 1984 4856 
Q 1566 4138 1362 3434 
Q 1159 2731 1159 2009 
Q 1159 1288 1364 580 
Q 1569 -128 1984 -844 
L 1484 -844 
Q 1016 -109 783 600 
Q 550 1309 550 2009 
Q 550 2706 781 3412 
Q 1013 4119 1484 4856 
L 1984 4856 
z
" transform="scale(0.015625)"/>
       <path id="DejaVuSans-3d" d="M 678 2906 
L 4684 2906 
L 4684 2381 
L 678 2381 
L 678 2906 
z
M 678 1631 
L 4684 1631 
L 4684 1100 
L 678 1100 
L 678 1631 
z
" transform="scale(0.015625)"/>
       <path id="DejaVuSans-29" d="M 513 4856 
L 1013 4856 
Q 1481 4119 1714 3412 
Q 1947 2706 1947 2009 
Q 1947 1309 1714 600 
Q 1481 -109 1013 -844 
L 513 -844 
Q 928 -128 1133 580 
Q 1338 1288 1338 2009 
Q 1338 2731 1133 3434 
Q 928 4138 513 4856 
z
" transform="scale(0.015625)"/>
      </defs>
      <use xlink:href="#DejaVuSans-50"/>
      <use xlink:href="#DejaVuSans-28" x="60.302734"/>
      <use xlink:href="#DejaVuSans-64" x="99.316406"/>
      <use xlink:href="#DejaVuSans-69" x="162.792969"/>
      <use xlink:href="#DejaVuSans-65" x="190.576172"/>
      <use xlink:href="#DejaVuSans-3d" x="252.099609"/>
      <use xlink:href="#DejaVuSans-31" x="335.888672"/>
      <use xlink:href="#DejaVuSans-29" x="399.511719"/>
     </g>
    </g>
    <g id="line2d_22">
     <path d="M 304.089063 34.976562 
L 314.089063 34.976562 
L 324.089063 34.976562 
" style="fill: none; stroke: #ff7f0e; stroke-width: 1.5; stroke-linecap: square"/>
    </g>
    <g id="text_17">
     <!-- P(die=2) -->
     <g transform="translate(332.089063 38.476562)scale(0.1 -0.1)">
      <use xlink:href="#DejaVuSans-50"/>
      <use xlink:href="#DejaVuSans-28" x="60.302734"/>
      <use xlink:href="#DejaVuSans-64" x="99.316406"/>
      <use xlink:href="#DejaVuSans-69" x="162.792969"/>
      <use xlink:href="#DejaVuSans-65" x="190.576172"/>
      <use xlink:href="#DejaVuSans-3d" x="252.099609"/>
      <use xlink:href="#DejaVuSans-32" x="335.888672"/>
      <use xlink:href="#DejaVuSans-29" x="399.511719"/>
     </g>
    </g>
    <g id="line2d_23">
     <path d="M 304.089063 49.654687 
L 314.089063 49.654687 
L 324.089063 49.654687 
" style="fill: none; stroke: #2ca02c; stroke-width: 1.5; stroke-linecap: square"/>
    </g>
    <g id="text_18">
     <!-- P(die=3) -->
     <g transform="translate(332.089063 53.154687)scale(0.1 -0.1)">
      <use xlink:href="#DejaVuSans-50"/>
      <use xlink:href="#DejaVuSans-28" x="60.302734"/>
      <use xlink:href="#DejaVuSans-64" x="99.316406"/>
      <use xlink:href="#DejaVuSans-69" x="162.792969"/>
      <use xlink:href="#DejaVuSans-65" x="190.576172"/>
      <use xlink:href="#DejaVuSans-3d" x="252.099609"/>
      <use xlink:href="#DejaVuSans-33" x="335.888672"/>
      <use xlink:href="#DejaVuSans-29" x="399.511719"/>
     </g>
    </g>
    <g id="line2d_24">
     <path d="M 304.089063 64.332812 
L 314.089063 64.332812 
L 324.089063 64.332812 
" style="fill: none; stroke: #d62728; stroke-width: 1.5; stroke-linecap: square"/>
    </g>
    <g id="text_19">
     <!-- P(die=4) -->
     <g transform="translate(332.089063 67.832812)scale(0.1 -0.1)">
      <use xlink:href="#DejaVuSans-50"/>
      <use xlink:href="#DejaVuSans-28" x="60.302734"/>
      <use xlink:href="#DejaVuSans-64" x="99.316406"/>
      <use xlink:href="#DejaVuSans-69" x="162.792969"/>
      <use xlink:href="#DejaVuSans-65" x="190.576172"/>
      <use xlink:href="#DejaVuSans-3d" x="252.099609"/>
      <use xlink:href="#DejaVuSans-34" x="335.888672"/>
      <use xlink:href="#DejaVuSans-29" x="399.511719"/>
     </g>
    </g>
    <g id="line2d_25">
     <path d="M 304.089063 79.010937 
L 314.089063 79.010937 
L 324.089063 79.010937 
" style="fill: none; stroke: #9467bd; stroke-width: 1.5; stroke-linecap: square"/>
    </g>
    <g id="text_20">
     <!-- P(die=5) -->
     <g transform="translate(332.089063 82.510937)scale(0.1 -0.1)">
      <use xlink:href="#DejaVuSans-50"/>
      <use xlink:href="#DejaVuSans-28" x="60.302734"/>
      <use xlink:href="#DejaVuSans-64" x="99.316406"/>
      <use xlink:href="#DejaVuSans-69" x="162.792969"/>
      <use xlink:href="#DejaVuSans-65" x="190.576172"/>
      <use xlink:href="#DejaVuSans-3d" x="252.099609"/>
      <use xlink:href="#DejaVuSans-35" x="335.888672"/>
      <use xlink:href="#DejaVuSans-29" x="399.511719"/>
     </g>
    </g>
    <g id="line2d_26">
     <path d="M 304.089063 93.689062 
L 314.089063 93.689062 
L 324.089063 93.689062 
" style="fill: none; stroke: #8c564b; stroke-width: 1.5; stroke-linecap: square"/>
    </g>
    <g id="text_21">
     <!-- P(die=6) -->
     <g transform="translate(332.089063 97.189062)scale(0.1 -0.1)">
      <defs>
       <path id="DejaVuSans-36" d="M 2113 2584 
Q 1688 2584 1439 2293 
Q 1191 2003 1191 1497 
Q 1191 994 1439 701 
Q 1688 409 2113 409 
Q 2538 409 2786 701 
Q 3034 994 3034 1497 
Q 3034 2003 2786 2293 
Q 2538 2584 2113 2584 
z
M 3366 4563 
L 3366 3988 
Q 3128 4100 2886 4159 
Q 2644 4219 2406 4219 
Q 1781 4219 1451 3797 
Q 1122 3375 1075 2522 
Q 1259 2794 1537 2939 
Q 1816 3084 2150 3084 
Q 2853 3084 3261 2657 
Q 3669 2231 3669 1497 
Q 3669 778 3244 343 
Q 2819 -91 2113 -91 
Q 1303 -91 875 529 
Q 447 1150 447 2328 
Q 447 3434 972 4092 
Q 1497 4750 2381 4750 
Q 2619 4750 2861 4703 
Q 3103 4656 3366 4563 
z
" transform="scale(0.015625)"/>
      </defs>
      <use xlink:href="#DejaVuSans-50"/>
      <use xlink:href="#DejaVuSans-28" x="60.302734"/>
      <use xlink:href="#DejaVuSans-64" x="99.316406"/>
      <use xlink:href="#DejaVuSans-69" x="162.792969"/>
      <use xlink:href="#DejaVuSans-65" x="190.576172"/>
      <use xlink:href="#DejaVuSans-3d" x="252.099609"/>
      <use xlink:href="#DejaVuSans-36" x="335.888672"/>
      <use xlink:href="#DejaVuSans-29" x="399.511719"/>
     </g>
    </g>
   </g>
  </g>
 </g>
 <defs>
  <clipPath id="p9e6ea79d53">
   <rect x="50.14375" y="7.2" width="334.8" height="249.48"/>
  </clipPath>
 </defs>
</svg>
